<?xml version="1.0" standalone="no"?>
<!DOCTYPE svg PUBLIC "-//W3C//DTD SVG 20010904//EN"
 "http://www.w3.org/TR/2001/REC-SVG-20010904/DTD/svg10.dtd">
<svg version="1.0" xmlns="http://www.w3.org/2000/svg"
 width="1080.000000pt" height="1080.000000pt" viewBox="0 0 1080.000000 1080.000000"
 preserveAspectRatio="xMidYMid meet">
<metadata>
Created by potrace 1.14, written by Peter Selinger 2001-2017
</metadata>
<g transform="translate(0.000000,1080.000000) scale(0.100000,-0.100000)"
fill="#000000" stroke="none">
<path d="M288 10745 c-3 -49 -1 -55 19 -60 31 -7 73 14 73 38 0 36 -32 77 -61
77 -26 0 -27 -3 -31 -55z"/>
<path d="M483 10793 c-23 -9 -14 -26 10 -19 12 4 27 8 34 10 7 1 16 5 19 9 8
8 -44 8 -63 0z"/>
<path d="M780 10790 c0 -12 17 -12 45 0 17 7 15 9 -12 9 -18 1 -33 -3 -33 -9z"/>
<path d="M890 10784 c0 -9 -9 -18 -20 -21 -30 -8 -18 -29 14 -25 15 2 33 -2
41 -8 15 -12 59 -21 108 -21 23 0 27 -3 22 -19 -6 -18 -2 -22 25 -22 3 -1 19
2 37 5 27 5 32 3 35 -16 3 -22 3 -22 253 -21 l250 0 1 38 c1 36 19 60 36 50 4
-3 5 1 2 9 -3 8 -1 18 5 22 19 11 13 45 -8 45 -14 0 -21 -8 -23 -27 -3 -25 -7
-28 -38 -28 -31 0 -35 3 -38 27 l-3 28 -159 -1 c-156 -2 -158 -2 -169 -25 -13
-30 -25 -30 -48 -1 -16 20 -28 24 -81 24 -58 1 -76 -7 -51 -23 20 -12 -7 -27
-29 -15 -11 6 -30 11 -42 11 -11 0 -23 7 -26 15 -9 22 -94 21 -94 -1z m577
-37 c9 -15 -7 -22 -50 -22 -36 0 -42 -3 -45 -22 -3 -19 -9 -21 -53 -19 -27 1
-50 -2 -51 -5 -5 -13 -71 -14 -75 -1 -3 6 2 12 10 12 17 0 75 28 82 41 4 5 18
9 33 9 15 0 34 5 42 10 18 12 99 10 107 -3z m61 -39 c4 -19 -35 -35 -50 -20
-6 6 -8 18 -4 27 8 21 50 16 54 -7z"/>
<path d="M2266 10784 c-4 -12 -15 -15 -37 -12 -23 4 -29 1 -24 -10 3 -7 8 -31
11 -53 6 -36 9 -39 36 -37 43 3 71 63 52 112 -8 21 -30 21 -38 0z"/>
<path d="M4482 10783 c2 -11 14 -19 28 -21 18 -2 21 0 11 6 -7 6 -10 15 -7 21
5 7 -1 11 -14 11 -15 0 -20 -5 -18 -17z"/>
<path d="M5010 10785 c0 -8 2 -15 4 -15 2 0 6 7 10 15 3 8 1 15 -4 15 -6 0
-10 -7 -10 -15z"/>
<path d="M1800 10756 c0 -23 -22 -31 -32 -12 -12 21 -24 20 -32 -1 -3 -10 -9
-24 -12 -32 -5 -10 -1 -13 15 -8 11 3 24 1 27 -4 20 -32 75 18 61 55 -8 20
-27 21 -27 2z"/>
<path d="M5050 10760 c0 -5 7 -10 16 -10 12 0 14 -7 9 -30 l-7 -30 93 0 c91 0
92 0 74 20 -10 11 -28 20 -39 20 -12 0 -28 5 -36 10 -10 6 -20 4 -32 -7 -13
-12 -18 -13 -18 -3 0 15 -29 39 -47 40 -7 0 -13 -4 -13 -10z"/>
<path d="M4542 10749 c2 -7 10 -15 17 -17 8 -3 12 1 9 9 -2 7 -10 15 -17 17
-8 3 -12 -1 -9 -9z"/>
<path d="M691 10741 c-11 -7 -9 -10 8 -16 25 -8 36 -2 26 14 -8 13 -15 14 -34
2z"/>
<path d="M8852 10741 c-17 -11 7 -21 48 -21 40 0 46 16 9 24 -39 8 -41 8 -57
-3z"/>
<path d="M9235 10730 c27 -12 35 -12 35 0 0 6 -12 10 -27 9 -25 0 -26 -1 -8
-9z"/>
<path d="M2500 10719 c0 -7 -8 -18 -17 -25 -17 -12 -16 -13 5 -14 17 0 22 6
22 25 0 14 -2 25 -5 25 -3 0 -5 -5 -5 -11z"/>
<path d="M600 10711 c0 -5 7 -12 16 -15 21 -8 21 -8 28 9 4 11 -1 15 -19 15
-14 0 -25 -4 -25 -9z"/>
<path d="M4839 10698 c-15 -28 2 -44 30 -27 16 10 27 11 49 3 24 -9 33 -8 53
7 l24 17 -25 6 c-14 2 -47 7 -73 9 -40 4 -49 1 -58 -15z"/>
<path d="M5625 10710 l-30 -6 34 -7 c53 -11 167 -9 155 3 -12 12 -116 19 -159
10z"/>
<path d="M5838 10713 c-31 -8 -20 -23 16 -23 38 0 55 14 30 24 -17 6 -19 6
-46 -1z"/>
<path d="M3583 10683 c9 -2 23 -2 30 0 6 3 -1 5 -18 5 -16 0 -22 -2 -12 -5z"/>
<path d="M870 10661 c-15 -29 -13 -31 30 -31 22 0 40 5 40 10 0 22 -2 25 -15
22 -7 -1 -16 2 -20 8 -10 16 -23 12 -35 -9z"/>
<path d="M0 10636 c0 -30 4 -36 21 -36 17 0 20 5 17 32 -2 22 -9 34 -20 36
-15 3 -18 -4 -18 -32z"/>
<path d="M67 10664 c-16 -16 -5 -25 26 -22 17 2 31 8 30 13 -3 12 -46 19 -56
9z"/>
<path d="M175 10660 c-3 -5 1 -10 9 -10 9 0 16 5 16 10 0 6 -4 10 -9 10 -6 0
-13 -4 -16 -10z"/>
<path d="M545 10560 c-12 -13 -19 -40 -21 -78 -3 -40 -9 -61 -21 -69 -16 -12
-120 -19 -208 -13 -35 2 -38 0 -26 -14 20 -24 7 -30 -36 -19 -27 6 -56 5 -98
-5 -33 -7 -77 -16 -97 -19 l-38 -5 0 -124 0 -124 28 13 c15 6 42 19 61 28 30
14 37 14 63 1 36 -18 107 -10 120 12 6 11 23 16 52 16 36 0 45 4 54 25 6 14
20 25 29 26 10 0 33 2 51 3 17 2 32 0 32 -6 0 -5 32 -8 71 -6 60 3 74 6 83 23
6 11 11 21 11 22 0 1 17 -2 37 -6 24 -6 72 -2 145 10 123 20 189 24 198 9 8
-13 72 -13 80 0 3 5 20 9 38 9 18 -1 66 1 107 3 62 5 79 2 98 -13 29 -22 47
-16 62 21 14 35 10 59 -11 73 -13 8 -22 4 -43 -18 -22 -23 -28 -26 -41 -15 -9
8 -35 13 -58 12 -23 -1 -129 -2 -235 -3 -176 -1 -195 1 -207 17 -9 13 -17 15
-26 8 -35 -25 -91 -36 -133 -25 -22 6 -52 12 -66 13 l-25 3 3 111 c2 64 0 114
-6 118 -5 3 -17 -3 -27 -14z"/>
<path d="M4915 10560 c3 -5 8 -10 11 -10 2 0 4 5 4 10 0 6 -5 10 -11 10 -5 0
-7 -4 -4 -10z"/>
<path d="M731 10541 c-35 -5 -41 -8 -30 -17 28 -23 114 -47 143 -40 l28 7 -28
27 c-31 30 -43 32 -113 23z"/>
<path d="M1060 10490 c0 -5 12 -10 28 -10 21 0 24 2 12 10 -20 13 -40 13 -40
0z"/>
<path d="M15 10425 c-3 -8 -7 -21 -9 -29 -8 -26 15 -36 45 -19 l27 16 -26 24
c-29 27 -31 28 -37 8z"/>
<path d="M1367 10424 c-11 -11 3 -24 24 -24 12 0 19 5 17 13 -5 14 -31 21 -41
11z"/>
<path d="M10088 10390 c-38 -3 -71 -10 -75 -13 -8 -8 48 -11 177 -8 115 2 159
9 139 22 -16 10 -141 10 -241 -1z"/>
<path d="M10465 10391 c-26 -6 -20 -9 35 -15 83 -10 152 -5 158 12 3 9 -17 12
-80 11 -45 -1 -96 -5 -113 -8z"/>
<path d="M10700 10391 c-44 -8 -27 -21 20 -15 19 2 45 4 58 4 12 0 22 5 22 10
0 11 -44 11 -100 1z"/>
<path d="M1610 10375 c-8 -9 -8 -15 -2 -15 12 0 26 19 19 26 -2 2 -10 -2 -17
-11z"/>
<path d="M9405 10381 c-36 -8 -22 -19 28 -23 41 -2 59 8 37 22 -16 11 -21 11
-65 1z"/>
<path d="M9806 10381 c-3 -5 1 -11 8 -14 20 -8 86 3 86 14 0 12 -87 12 -94 0z"/>
<path d="M9933 10383 c9 -2 23 -2 30 0 6 3 -1 5 -18 5 -16 0 -22 -2 -12 -5z"/>
<path d="M6426 10373 c-2 -2 -42 -11 -58 -12 -16 -2 -7 -21 10 -21 9 0 28 -9
41 -19 24 -18 25 -18 50 0 18 13 49 20 101 23 41 3 80 5 85 5 6 1 -3 8 -19 16
-21 11 -54 15 -118 13 -50 -2 -91 -4 -92 -5z"/>
<path d="M7926 10371 c-55 -4 -81 -10 -84 -20 -4 -11 6 -12 54 -6 33 5 90 9
128 9 46 1 71 5 73 14 5 13 -22 13 -171 3z"/>
<path d="M3113 10354 c-5 -13 -24 -16 -112 -16 -602 0 -1102 -5 -1129 -12 -43
-10 -36 -31 12 -31 20 0 41 -7 45 -14 6 -8 14 -10 22 -5 18 11 48 14 87 7 52
-9 37 -22 -25 -21 -32 1 -66 -3 -76 -7 -11 -4 -29 -2 -44 6 -22 12 -26 11 -41
-8 -19 -24 -36 -29 -69 -18 -35 11 -42 55 -9 55 17 0 38 24 30 33 -4 3 -15 2
-25 -4 -14 -7 -27 -5 -49 6 -29 15 -30 15 -30 -6 0 -12 8 -23 20 -26 21 -6 29
-53 9 -53 -7 0 -9 -9 -5 -24 6 -23 5 -23 -41 -13 -29 7 -48 17 -50 28 -3 11
-19 20 -43 24 -35 6 -39 10 -42 38 -3 31 -4 32 -51 30 -57 -2 -66 -8 -49 -31
7 -9 15 -25 19 -36 5 -15 13 -17 44 -13 34 4 39 2 39 -14 0 -10 -4 -19 -10
-19 -5 0 -7 -6 -4 -14 4 -10 -10 -15 -53 -19 -51 -6 -60 -4 -74 14 -18 24 -63
18 -78 -10 -8 -13 -4 -18 19 -26 28 -9 37 -29 15 -31 -5 0 -18 -4 -28 -9 -23
-10 -48 22 -41 52 8 32 -28 40 -60 12 -14 -12 -23 -25 -21 -29 2 -4 0 -20 -5
-36 -4 -16 -9 -22 -9 -13 -1 22 -31 34 -31 13 0 -14 -2 -14 -16 0 -13 14 -42
21 -67 17 -4 -1 -10 6 -13 14 -4 10 -10 12 -18 6 -6 -5 -27 -11 -46 -13 -30
-3 -35 -6 -33 -28 0 -14 4 -34 6 -45 3 -11 6 -22 6 -25 1 -3 5 2 11 10 8 12
10 12 16 -4 4 -10 2 -21 -5 -26 -10 -5 -9 -9 3 -13 10 -4 16 -1 16 9 0 13 5
12 26 -5 18 -14 41 -21 69 -21 31 0 49 -7 69 -25 32 -30 32 -35 2 -35 -20 0
-23 -4 -20 -27 2 -16 1 -22 -2 -15 -3 6 -13 12 -22 12 -14 0 -14 -2 -3 -9 23
-15 1 -32 -38 -31 -63 3 -71 1 -71 -20 0 -12 -7 -20 -17 -20 -9 0 -25 -8 -36
-17 -20 -18 -20 -17 -14 15 6 27 4 32 -13 32 -29 0 -26 -41 5 -70 35 -33 33
-54 -4 -47 -28 6 -30 4 -33 -31 l-4 -37 -12 28 c-10 23 -9 34 3 58 9 16 13 34
10 39 -11 18 -25 0 -25 -31 0 -16 -5 -28 -11 -27 -6 2 -14 -4 -19 -12 -4 -8
-15 -30 -25 -48 -9 -19 -18 -46 -20 -60 -4 -39 -31 -106 -44 -110 -15 -5 -14
-39 1 -44 7 -3 9 -12 4 -24 -7 -17 -8 -18 -20 -3 -10 14 -15 15 -29 4 -9 -7
-17 -18 -17 -25 0 -7 -14 -28 -31 -47 -30 -35 -35 -63 -12 -70 6 -2 14 10 18
27 4 16 10 28 14 25 5 -2 23 0 41 5 30 9 32 8 25 -13 -4 -12 -9 -32 -12 -44
-6 -25 -48 -33 -55 -12 -3 9 -10 9 -26 0 -19 -10 -29 -41 -23 -75 1 -5 -8 -19
-20 -32 l-22 -24 32 0 c17 0 43 -8 57 -17 21 -13 30 -14 45 -5 10 7 26 12 34
12 8 0 15 4 15 10 0 6 9 6 26 0 32 -13 85 -13 118 0 20 7 27 6 35 -7 8 -14 13
-15 35 -5 17 7 27 8 32 1 4 -6 85 -7 237 -3 128 4 268 7 312 6 61 -1 84 3 98
15 14 13 22 15 36 6 9 -6 37 -10 62 -10 25 0 51 -3 57 -7 15 -9 52 2 52 15 0
5 9 9 19 9 11 0 58 37 106 85 48 47 89 85 91 85 2 0 34 22 71 48 38 27 77 51
88 56 33 12 85 50 85 62 0 7 -7 14 -15 18 -8 3 -15 11 -15 17 0 7 10 5 26 -6
40 -26 55 0 38 67 -5 22 1 38 30 78 20 27 36 53 36 58 0 4 -5 0 -10 -8 -8 -13
-10 -12 -10 3 0 9 5 17 11 17 6 0 9 10 7 23 -2 15 -11 23 -28 25 -23 2 -24 2
-7 -12 16 -12 16 -14 2 -20 -11 -4 -14 -2 -9 7 4 6 -5 -1 -20 -16 -18 -19 -25
-35 -21 -48 5 -16 1 -19 -24 -19 -30 0 -41 13 -21 25 5 3 7 20 3 36 -4 21 -1
34 8 41 10 6 7 7 -10 3 -17 -5 -21 -4 -16 5 5 9 1 10 -14 5 -23 -7 -23 -6 22
92 5 11 6 26 3 32 -10 15 59 14 87 -1 34 -18 49 -36 35 -40 -7 -3 -9 -12 -4
-24 7 -19 8 -19 19 1 17 32 34 45 56 45 23 0 25 4 12 28 -12 22 11 55 31 47 8
-3 21 -17 28 -31 8 -13 18 -23 24 -21 15 5 19 48 7 79 -8 21 -15 25 -33 20
-13 -3 -28 -12 -34 -21 -10 -13 -12 -12 -19 8 -5 17 0 27 20 43 25 19 25 21 8
33 -32 22 -80 28 -86 11 -4 -9 1 -19 9 -24 23 -13 13 -46 -15 -50 -23 -4 -24
-1 -18 37 4 36 3 41 -14 41 -10 0 -19 4 -19 9 0 21 -45 16 -65 -6 -28 -31
-105 -51 -140 -35 -33 15 -23 33 14 26 26 -5 28 -3 29 25 1 30 -13 38 -50 32
-5 0 -8 4 -8 9 0 6 -16 10 -35 10 -20 0 -35 5 -35 12 0 6 -8 21 -17 32 -10 12
-14 18 -9 14 5 -4 15 0 21 9 11 15 13 15 20 -6 5 -16 12 -20 23 -16 10 4 26 8
36 9 20 1 36 26 17 26 -6 0 -11 5 -11 11 0 7 18 8 53 5 107 -12 248 -17 260
-9 6 4 53 9 102 10 50 2 140 5 200 6 61 2 118 7 129 12 10 4 26 4 35 -1 28
-16 131 -1 147 21 13 17 16 18 24 5 6 -9 21 -14 44 -12 26 3 40 -2 53 -17 22
-26 97 -30 107 -5 5 12 14 14 38 9 18 -4 36 -12 39 -17 3 -5 17 -5 33 2 34 13
36 12 36 -1 0 -5 -4 -7 -10 -4 -5 3 -10 2 -10 -3 0 -5 16 -9 35 -10 36 -1 47
11 20 22 -11 4 -14 13 -9 31 7 29 11 28 -223 27 -101 -1 -123 1 -123 13 0 21
-69 20 -77 -1z m-1143 -130 c0 -2 -9 -4 -21 -4 -11 0 -18 4 -14 10 5 8 35 3
35 -6z m-530 -74 c0 -5 -4 -10 -9 -10 -6 0 -13 5 -16 10 -3 6 1 10 9 10 9 0
16 -4 16 -10z m-189 -213 c-13 -13 -26 -3 -16 12 3 6 11 8 17 5 6 -4 6 -10 -1
-17z m1223 4 c21 -23 4 -38 -18 -15 -17 17 -21 34 -8 34 5 0 17 -9 26 -19z
m-522 -16 c0 -5 -5 -11 -11 -13 -6 -2 -11 4 -11 13 0 9 5 15 11 13 6 -2 11 -8
11 -13z m148 -48 c0 -9 -12 -14 -31 -14 -29 0 -30 2 -13 14 10 7 24 13 31 13
7 0 13 -6 13 -13z m-715 -37 c3 -5 2 -10 -4 -10 -5 0 -13 5 -16 10 -3 6 -2 10
4 10 5 0 13 -4 16 -10z m675 -41 c6 -22 14 -48 17 -56 5 -13 2 -15 -11 -10
-26 10 -38 -1 -25 -25 13 -24 3 -71 -14 -65 -16 5 -15 76 1 104 10 17 11 27 2
43 -9 16 -8 25 1 36 16 20 17 19 29 -27z m-119 -36 c-8 -15 -10 -15 -11 -2 0
17 10 32 18 25 2 -3 -1 -13 -7 -23z m349 -104 c0 -5 -4 -9 -10 -9 -5 0 -10 7
-10 16 0 8 5 12 10 9 6 -3 10 -10 10 -16z m-113 -21 c-3 -8 -6 -5 -6 6 -1 11
2 17 5 13 3 -3 4 -12 1 -19z m-265 -60 c-9 -9 -12 -7 -12 12 0 19 3 21 12 12
9 -9 9 -15 0 -24z m-798 6 c4 -9 0 -24 -9 -34 -8 -9 -15 -22 -15 -28 0 -17
-32 -52 -42 -46 -13 8 -9 78 5 96 11 14 30 25 48 27 4 1 10 -6 13 -15z m1096
-20 c0 -9 -11 -14 -30 -14 -18 0 -30 5 -30 13 0 9 12 14 30 15 20 0 30 -4 30
-14z m-1040 -4 c0 -5 -4 -10 -10 -10 -5 0 -10 5 -10 10 0 6 5 10 10 10 6 0 10
-4 10 -10z m894 -10 c42 0 50 -9 29 -32 -21 -24 -54 -23 -76 3 -15 17 -16 23
-5 36 8 10 14 11 16 4 2 -6 18 -11 36 -11z m76 -11 c0 -11 -4 -18 -10 -14 -5
3 -7 12 -3 20 7 21 13 19 13 -6z m110 10 c0 -7 10 -9 25 -5 33 8 34 -16 0 -38
-30 -20 -39 -20 -32 -2 3 8 -1 17 -8 20 -8 3 -12 12 -9 21 7 17 24 20 24 4z
m-974 -36 c-10 -10 -19 5 -10 18 6 11 8 11 12 0 2 -7 1 -15 -2 -18z m950 2 c7
-16 -16 -75 -30 -75 -4 0 -6 6 -3 13 2 6 1 21 -3 32 -8 20 4 45 22 45 5 0 11
-7 14 -15z m-952 -51 c4 -15 2 -32 -3 -37 -8 -8 -11 -7 -11 4 0 7 -3 24 -6 37
-4 12 -2 22 4 22 5 0 13 -12 16 -26z m-366 5 c20 -7 29 -15 25 -25 -3 -8 1
-15 8 -15 8 -1 -4 -5 -26 -9 -22 -4 -43 -6 -46 -4 -5 3 0 64 6 64 1 0 16 -5
33 -11z m230 -47 c2 -7 -3 -12 -12 -12 -9 0 -16 7 -16 16 0 17 22 14 28 -4z
m72 9 c0 -5 -11 -11 -25 -13 -14 -3 -25 -2 -25 3 0 4 10 10 23 12 12 2 23 5
25 6 1 0 2 -3 2 -8z m584 -11 c14 -5 26 -15 26 -22 0 -7 4 -19 9 -27 7 -11 13
-11 32 3 13 9 36 16 52 16 16 0 37 5 47 10 13 7 21 7 25 0 3 -5 15 -10 26 -10
10 0 19 -7 19 -15 0 -8 -6 -15 -13 -15 -7 0 -17 -8 -24 -18 -8 -14 -19 -18
-43 -14 -30 4 -31 3 -21 -16 15 -28 14 -29 -11 -35 -11 -3 -33 0 -47 7 -14 7
-31 11 -38 9 -6 -2 -14 1 -18 6 -3 6 -37 11 -74 11 -54 0 -71 4 -85 19 -17 19
-17 19 1 15 14 -4 25 3 37 21 44 67 55 73 100 55z m-894 -26 c0 -8 -5 -12 -10
-9 -6 4 -8 11 -5 16 9 14 15 11 15 -7z m10 -79 c0 -14 -4 -25 -10 -25 -11 0
-14 33 -3 43 11 11 13 8 13 -18z m-55 -125 c3 -5 1 -10 -4 -10 -6 0 -11 5 -11
10 0 6 2 10 4 10 3 0 8 -4 11 -10z m-115 -4 c0 -3 -4 -8 -10 -11 -5 -3 -10 -1
-10 4 0 6 5 11 10 11 6 0 10 -2 10 -4z"/>
<path d="M4871 10358 c-24 -4 -48 -5 -52 -2 -5 3 -9 1 -9 -4 0 -16 183 -46
298 -48 80 -2 122 1 147 11 19 8 61 15 94 16 32 1 64 5 71 9 7 4 23 2 37 -5
15 -8 36 -10 57 -5 18 4 41 3 50 -2 26 -15 101 -6 101 12 0 12 -21 16 -115 18
-249 8 -637 8 -679 0z"/>
<path d="M6695 10359 c-13 -5 11 -8 64 -8 46 -1 82 1 80 3 -9 9 -125 13 -144
5z"/>
<path d="M6875 10360 c-8 -12 42 -12 70 0 16 7 11 9 -22 9 -23 1 -45 -3 -48
-9z"/>
<path d="M6980 10360 c0 -6 27 -10 60 -10 33 0 60 4 60 10 0 6 -27 10 -60 10
-33 0 -60 -4 -60 -10z"/>
<path d="M8155 10360 c-8 -13 15 -13 35 0 12 8 11 10 -7 10 -12 0 -25 -4 -28
-10z"/>
<path d="M3595 10330 c-11 -21 -13 -36 -7 -42 15 -15 116 -12 217 6 52 9 109
14 135 10 25 -3 84 -7 132 -9 64 -2 92 -8 104 -19 17 -17 27 -19 62 -10 17 5
21 11 16 27 -5 15 -3 19 9 14 46 -17 88 -19 112 -3 13 9 39 17 57 17 76 4 -96
20 -242 24 -85 2 -198 6 -251 10 -74 6 -103 5 -125 -6 -29 -14 -71 -13 -166 6
-34 6 -38 5 -53 -25z m632 -36 c-3 -3 -12 -4 -19 -1 -8 3 -5 6 6 6 11 1 17 -2
13 -5z"/>
<path d="M5810 10341 c0 -5 7 -12 16 -15 22 -9 24 -8 18 9 -7 16 -34 21 -34 6z"/>
<path d="M6439 10200 c-1 -27 3 -175 7 -220 1 -25 3 -48 3 -52 1 -5 5 -8 10
-8 12 0 3 272 -10 285 -6 5 -9 4 -10 -5z"/>
<path d="M1104 10186 c-10 -8 -16 -17 -12 -21 7 -7 48 16 48 27 0 12 -14 9
-36 -6z"/>
<path d="M2563 10183 c9 -9 20 -13 24 -9 4 4 1 11 -7 16 -25 16 -35 11 -17 -7z"/>
<path d="M3890 10190 c-21 -7 -21 -8 -5 -9 11 0 27 4 35 9 18 11 5 11 -30 0z"/>
<path d="M5710 10190 c0 -5 7 -10 16 -10 8 0 12 5 9 10 -3 6 -10 10 -16 10 -5
0 -9 -4 -9 -10z"/>
<path d="M2611 10166 c-14 -17 -1 -28 19 -16 11 7 12 12 4 20 -8 8 -14 7 -23
-4z"/>
<path d="M2480 10166 c0 -2 7 -6 15 -10 8 -3 15 -1 15 4 0 6 -7 10 -15 10 -8
0 -15 -2 -15 -4z"/>
<path d="M862 10144 c-12 -8 -26 -12 -32 -9 -5 3 -54 6 -107 6 -160 0 -153 1
-163 -26 -8 -20 -16 -25 -44 -25 -19 0 -38 -4 -41 -10 -3 -5 -35 -8 -71 -6
-63 4 -65 3 -48 -15 9 -11 14 -22 11 -26 -4 -3 -7 -2 -7 2 0 10 -29 -27 -30
-37 0 -5 9 1 21 13 16 16 24 18 34 9 11 -9 14 -6 17 11 2 16 11 23 32 26 24 3
27 1 22 -14 -5 -12 0 -23 16 -34 23 -18 23 -18 3 -38 -52 -54 -60 -61 -72 -61
-17 0 -17 -29 0 -35 6 -3 12 -21 13 -41 0 -31 -3 -36 -28 -41 -27 -5 -40 -33
-15 -33 6 0 25 -7 40 -15 l28 -15 -6 31 c-9 40 15 36 26 -5 6 -21 4 -29 -9
-33 -30 -10 -51 -45 -41 -65 12 -23 2 -45 -14 -29 -6 6 -19 11 -29 11 -13 0
-16 7 -13 29 4 32 -18 61 -30 41 -4 -7 -2 -17 3 -22 6 -6 8 -24 5 -39 -5 -24
-2 -29 15 -29 27 0 35 -15 21 -38 -16 -25 -5 -52 21 -52 15 0 20 -5 18 -17 -4
-19 -9 -20 -44 -9 -13 4 -27 -1 -40 -12 -11 -10 -25 -17 -32 -14 -14 4 -43
-28 -36 -40 2 -3 -1 -17 -7 -31 -9 -20 -7 -32 11 -67 17 -33 20 -48 12 -65 -8
-17 -7 -28 4 -44 13 -18 13 -22 -6 -38 -24 -20 -26 -43 -5 -43 8 0 15 7 15 15
0 8 3 15 8 16 4 0 29 3 56 5 l49 6 -6 -30 c-9 -46 8 -53 86 -36 40 9 67 21 67
28 0 9 -10 12 -27 9 -25 -4 -26 -3 -11 9 9 8 18 30 20 49 2 24 10 37 25 44 15
6 24 21 28 50 7 49 24 86 47 103 18 13 58 95 58 118 0 8 7 14 15 14 20 0 48
56 40 81 -5 15 -13 19 -28 15 -12 -3 -25 -6 -29 -6 -5 0 -8 -12 -8 -26 0 -14
-4 -23 -10 -19 -5 3 -10 19 -10 35 0 27 2 28 51 27 55 0 69 10 69 54 0 14 10
34 21 45 31 28 69 112 71 157 1 28 10 48 33 73 17 19 36 34 42 34 14 0 23 24
23 65 0 24 -7 39 -26 54 -32 25 -43 26 -72 5z m-284 -117 c15 -18 25 -64 15
-70 -5 -3 -18 2 -30 11 -16 13 -20 24 -16 45 6 30 15 34 31 14z m214 -199 c-7
-7 -12 -8 -12 -2 0 14 12 26 19 19 2 -3 -1 -11 -7 -17z m-2 -37 c0 -6 -4 -13
-10 -16 -5 -3 -10 1 -10 9 0 9 5 16 10 16 6 0 10 -4 10 -9z m-222 -214 c8 -9
4 -18 -13 -33 l-23 -21 3 26 c2 14 4 29 4 34 1 11 17 8 29 -6z m46 -42 c4 -10
-1 -15 -16 -15 -17 0 -18 2 -8 15 7 8 14 15 15 15 2 0 5 -7 9 -15z m-264 -79
c0 -11 -19 -15 -25 -6 -3 5 1 10 9 10 9 0 16 -2 16 -4z m-6 -71 c-4 -8 -8 -15
-10 -15 -2 0 -4 7 -4 15 0 8 4 15 10 15 5 0 7 -7 4 -15z m93 -77 c-3 -8 -6 -5
-6 6 -1 11 2 17 5 13 3 -3 4 -12 1 -19z"/>
<path d="M3067 10153 c-12 -11 -8 -23 8 -23 28 0 15 -17 -25 -33 -41 -16 -41
-16 -50 9 -9 24 -13 25 -70 20 -47 -3 -60 -1 -60 10 0 18 -17 18 -35 0 -8 -7
-37 -16 -65 -20 -30 -4 -53 -13 -57 -21 -10 -29 -25 -14 -20 20 3 24 1 35 -7
32 -7 -2 -10 -26 -9 -63 1 -32 2 -68 2 -79 -4 -189 -3 -258 3 -297 7 -46 7
-47 -22 -53 -16 -4 -32 -10 -35 -15 -6 -10 65 -1 80 10 6 4 22 10 38 14 15 3
27 11 27 16 0 6 6 10 14 10 8 0 50 18 93 40 43 22 82 40 87 40 5 0 17 6 25 13
9 8 57 31 106 52 50 21 132 57 183 82 77 36 92 47 87 62 -4 12 0 21 11 25 15
6 15 8 -1 26 -10 12 -13 20 -7 20 7 0 12 15 12 33 0 20 -3 27 -8 19 -12 -18
-48 -23 -79 -11 -18 6 -30 6 -36 0 -15 -15 -47 16 -47 46 0 28 -17 22 -30 -11
-6 -15 -9 -17 -9 -4 -1 10 -13 19 -33 23 -18 4 -40 8 -49 11 -8 2 -18 1 -22
-3z m231 -140 c-4 -23 -48 -31 -48 -9 0 13 14 21 43 25 5 0 7 -7 5 -16z m-553
-303 c3 -5 -1 -10 -10 -10 -9 0 -13 5 -10 10 3 6 8 10 10 10 2 0 7 -4 10 -10z"/>
<path d="M3460 10122 c0 -4 4 -23 10 -42 9 -35 9 -35 -9 -13 -12 14 -22 18
-31 13 -12 -7 -12 -11 0 -25 11 -14 10 -17 -9 -22 -29 -7 -21 -27 12 -31 27
-3 107 34 107 50 0 4 -9 8 -20 8 -11 0 -20 7 -20 15 0 8 5 15 10 15 6 0 1 9
-10 20 -20 20 -40 26 -40 12z"/>
<path d="M3646 10112 c-24 -12 -26 -16 -13 -23 16 -10 61 3 71 19 10 17 -28
19 -58 4z"/>
<path d="M3561 10077 c-15 -18 -6 -25 24 -19 14 2 25 11 25 18 0 18 -34 18
-49 1z"/>
<path d="M115 10049 c-4 -6 -5 -13 -1 -16 8 -8 56 6 56 17 0 13 -47 13 -55 -1z"/>
<path d="M0 9961 c0 -25 6 -27 13 -6 4 8 2 17 -3 20 -6 4 -10 -3 -10 -14z"/>
<path d="M400 9949 c0 -11 5 -17 10 -14 6 3 10 13 10 21 0 8 -4 14 -10 14 -5
0 -10 -9 -10 -21z"/>
<path d="M0 9910 c0 -11 4 -20 9 -20 5 0 7 9 4 20 -3 11 -7 20 -9 20 -2 0 -4
-9 -4 -20z"/>
<path d="M2510 9864 c0 -11 5 -14 16 -10 9 3 23 6 32 7 14 0 13 2 -3 9 -31 13
-45 11 -45 -6z"/>
<path d="M2366 9814 c-5 -14 -4 -15 9 -4 17 14 19 20 6 20 -5 0 -12 -7 -15
-16z"/>
<path d="M300 9789 c0 -5 5 -7 10 -4 6 3 10 8 10 11 0 2 -4 4 -10 4 -5 0 -10
-5 -10 -11z"/>
<path d="M1 9615 c0 -109 4 -155 12 -155 8 0 8 -3 -1 -12 -16 -16 -15 -45 0
-50 7 -3 25 0 41 6 34 13 50 -5 36 -41 -4 -12 -6 -29 -3 -37 6 -15 -26 -27
-55 -19 -17 4 -18 7 -5 31 19 38 17 45 -6 22 -17 -17 -19 -33 -18 -135 l0
-116 32 8 c17 4 61 7 99 6 53 -2 67 1 67 12 0 9 -10 15 -25 15 -28 0 -32 12
-10 34 8 8 15 21 15 28 0 8 5 19 11 25 7 7 7 17 1 29 -6 11 -13 26 -15 35 -3
9 -18 19 -34 22 -26 5 -28 10 -31 56 -1 28 2 60 8 70 7 14 7 20 -1 23 -7 2
-13 34 -16 73 -4 81 -18 115 -47 115 -15 0 -17 3 -8 12 15 15 16 48 2 48 -6 0
-15 11 -20 25 -22 58 -30 23 -29 -130z m80 -88 c-5 -12 -6 -27 -4 -34 2 -6 -1
-14 -6 -18 -6 -3 -11 1 -11 9 0 10 -8 15 -22 13 -17 -1 -23 3 -23 18 0 15 6
19 23 18 16 -2 22 2 22 18 0 18 3 19 14 9 10 -8 12 -18 7 -33z"/>
<path d="M256 9745 c-4 -16 -13 -25 -26 -25 -23 0 -27 -15 -5 -24 8 -3 15 0
15 6 0 7 5 6 15 -2 12 -10 16 -8 24 11 5 14 5 29 0 35 -5 6 -6 14 -2 17 3 4 2
7 -4 7 -6 0 -14 -11 -17 -25z"/>
<path d="M10545 9760 c-4 -6 -2 -16 4 -23 6 -8 6 -18 1 -27 -15 -24 -12 -30
19 -30 40 0 48 40 14 69 -27 24 -29 25 -38 11z"/>
<path d="M300 9734 c0 -14 4 -23 10 -19 6 3 10 15 10 26 0 10 -4 19 -10 19 -5
0 -10 -12 -10 -26z"/>
<path d="M370 9730 c0 -5 5 -10 10 -10 6 0 10 5 10 10 0 6 -4 10 -10 10 -5 0
-10 -4 -10 -10z"/>
<path d="M2780 9560 c0 -5 -7 -10 -17 -10 -9 0 -14 -2 -11 -5 8 -9 58 6 58 16
0 5 -7 9 -15 9 -8 0 -15 -4 -15 -10z"/>
<path d="M2691 9531 c-7 -5 -9 -11 -5 -14 10 -5 54 9 54 18 0 8 -34 6 -49 -4z"/>
<path d="M185 9359 c-4 -6 0 -18 9 -27 15 -15 16 -15 16 5 0 25 -15 38 -25 22z"/>
<path d="M230 9324 c0 -8 5 -12 10 -9 6 3 10 10 10 16 0 5 -4 9 -10 9 -5 0
-10 -7 -10 -16z"/>
<path d="M3800 9298 c-47 -29 -134 -48 -189 -42 l-46 5 24 -20 c32 -29 127
-29 179 -1 55 29 74 47 70 64 -3 14 -8 13 -38 -6z"/>
<path d="M10720 9271 c0 -5 7 -12 16 -15 24 -9 28 -7 14 9 -14 17 -30 20 -30
6z"/>
<path d="M228 9123 c7 -3 16 -2 19 1 4 3 -2 6 -13 5 -11 0 -14 -3 -6 -6z"/>
<path d="M6165 9090 c3 -5 10 -10 16 -10 5 0 9 5 9 10 0 6 -7 10 -16 10 -8 0
-12 -4 -9 -10z"/>
<path d="M1320 9050 c0 -5 6 -10 14 -10 8 0 18 5 21 10 3 6 -3 10 -14 10 -12
0 -21 -4 -21 -10z"/>
<path d="M5834 9040 c-31 -12 -38 -29 -22 -48 17 -19 48 -85 48 -100 0 -5 7
-15 16 -22 8 -8 14 -25 12 -39 -2 -18 2 -27 15 -29 13 -3 17 3 17 23 0 28 25
44 43 26 14 -14 27 -14 27 -1 0 6 -7 10 -15 10 -17 0 -20 16 -6 25 5 3 7 27 5
53 -6 52 -39 93 -80 98 -12 1 -26 4 -31 7 -4 3 -18 1 -29 -3z"/>
<path d="M5166 8917 c-3 -12 1 -28 10 -38 8 -9 12 -24 8 -33 -4 -11 -1 -16 12
-17 11 -1 33 -3 50 -5 25 -3 33 1 37 16 4 15 0 20 -14 20 -13 0 -18 6 -16 21
1 17 -8 26 -40 39 -41 18 -41 18 -47 -3z"/>
<path d="M6157 8913 c1 -16 6 -40 9 -55 4 -19 2 -28 -6 -28 -7 0 -18 -7 -24
-16 -11 -14 -16 -14 -49 0 -35 14 -37 14 -48 -5 -5 -11 -9 -34 -7 -52 3 -26 9
-33 38 -42 19 -5 41 -14 48 -18 7 -5 21 -5 32 -2 11 4 20 2 20 -2 0 -15 68
-43 104 -43 19 0 39 -7 46 -16 8 -8 27 -22 44 -29 17 -8 38 -19 46 -24 8 -4
36 -18 63 -30 26 -11 47 -25 47 -31 0 -12 -16 -13 -38 -1 -28 15 -102 23 -102
11 0 -5 7 -10 15 -10 21 0 90 -37 110 -60 10 -11 26 -20 35 -20 9 0 36 -13 58
-30 27 -20 53 -30 74 -29 l33 1 -26 11 c-15 7 -44 29 -65 50 -21 20 -46 37
-56 37 -10 0 -18 7 -18 15 0 8 5 15 10 15 12 0 14 37 2 42 -4 2 -18 20 -31 41
-12 20 -27 35 -31 32 -5 -3 -17 6 -26 20 -9 13 -20 23 -24 20 -4 -3 -13 2 -20
10 -10 12 -9 15 4 15 21 0 20 6 -9 55 -14 22 -31 54 -39 70 -21 44 -64 85 -87
85 -11 0 -30 6 -42 14 -12 8 -38 17 -58 20 -34 6 -35 5 -32 -21z m8 -143 c3
-5 1 -10 -4 -10 -6 0 -11 5 -11 10 0 6 2 10 4 10 3 0 8 -4 11 -10z"/>
<path d="M5409 8913 c-1 -5 -1 -12 0 -17 1 -4 -3 -14 -10 -22 -6 -7 -8 -18 -5
-23 9 -15 -13 -24 -28 -12 -10 8 -17 7 -27 -5 -11 -14 -6 -15 57 -14 72 1 269
-20 387 -41 37 -7 70 -9 73 -6 10 10 -55 66 -84 73 -15 4 -37 15 -48 26 -12
10 -25 18 -30 17 -5 -1 -22 4 -37 11 -24 12 -30 12 -38 -1 -7 -11 -9 -11 -9 4
0 24 -55 23 -77 -2 -9 -11 -22 -17 -29 -14 -7 3 -14 -5 -17 -19 l-4 -23 -8 23
c-8 25 -25 30 -25 8 0 -20 -21 -31 -30 -17 -4 7 -5 23 -2 37 2 13 2 24 -2 24
-3 0 -7 -3 -7 -7z"/>
<path d="M4950 8891 c-12 -8 -12 -14 -1 -34 11 -20 23 -26 58 -29 24 -2 49 0
55 3 14 9 -20 59 -41 59 -9 0 -25 3 -36 5 -11 3 -27 1 -35 -4z"/>
<path d="M4816 8841 c-3 -5 -26 -12 -52 -16 -73 -11 -43 -18 42 -10 69 7 75 9
59 21 -22 16 -41 18 -49 5z"/>
<path d="M10190 8843 c-25 -2 -48 -7 -51 -11 -4 -4 -3 -90 2 -192 4 -102 11
-371 14 -599 3 -228 8 -418 10 -422 3 -3 26 -7 51 -7 46 -1 51 12 9 20 -27 5
-33 52 -35 253 -1 89 -5 260 -10 380 -8 190 -14 486 -11 522 1 16 56 33 110
33 31 1 41 3 31 9 -22 13 -69 18 -120 14z"/>
<path d="M2301 8792 c-36 -44 -92 -81 -144 -96 -35 -11 -6 -26 49 -26 38 0 54
-4 54 -13 0 -8 -10 -13 -22 -13 -17 1 -24 -5 -26 -22 -5 -35 -92 -81 -92 -48
0 13 -23 26 -59 32 -8 2 -18 10 -23 18 -12 22 -35 20 -48 -4 -6 -11 -15 -18
-20 -15 -4 3 -15 2 -24 -1 -15 -6 -15 -8 1 -19 10 -7 21 -11 25 -9 19 12 18
-22 -2 -48 -12 -16 -19 -32 -16 -35 3 -4 6 -1 6 6 0 7 4 10 9 6 5 -3 13 0 17
6 5 9 11 7 21 -6 17 -24 18 -115 1 -115 -19 0 25 -29 45 -30 9 0 17 -5 17 -10
0 -6 -8 -14 -17 -18 -13 -5 -4 -9 27 -12 43 -5 45 -6 51 -44 9 -55 1 -76 -31
-83 -21 -4 -32 -15 -44 -45 -8 -23 -13 -45 -10 -49 16 -26 -60 -85 -87 -68
-17 10 -29 -7 -29 -43 0 -16 -4 -28 -10 -28 -5 0 -10 -7 -10 -15 0 -20 -16
-19 -24 0 -3 9 1 18 9 21 8 4 15 13 15 21 0 9 -6 13 -14 10 -11 -5 -12 0 -2
25 10 26 8 32 -11 48 -23 18 -31 40 -14 40 5 0 16 3 25 6 11 4 16 0 16 -14 0
-11 7 -23 16 -26 24 -9 28 -7 14 9 -6 8 -9 23 -5 35 5 16 2 20 -14 20 -11 0
-23 -4 -26 -10 -3 -5 -17 -10 -31 -10 -18 0 -24 5 -24 21 0 18 -4 20 -27 14
-26 -6 -27 -6 -10 13 22 24 22 38 0 45 -10 4 -36 13 -57 21 -48 18 -93 11
-111 -18 -14 -23 -30 -109 -26 -141 3 -16 1 -17 -13 -6 -9 8 -18 12 -19 10 -2
-2 -14 -20 -28 -39 -36 -53 -60 -70 -83 -58 -12 6 -16 6 -12 0 3 -5 -1 -15 -8
-21 -10 -8 -16 -9 -21 -1 -15 24 -23 -5 -23 -88 0 -48 -3 -112 -6 -142 -3 -30
-8 -95 -11 -144 -3 -49 -7 -92 -10 -95 -16 -15 -24 29 -29 154 -3 77 -9 183
-12 235 -3 53 -1 139 5 195 7 55 13 188 16 295 2 107 8 209 13 225 16 48 22
94 13 100 -21 12 -41 -8 -41 -41 0 -20 -9 -43 -24 -61 -21 -24 -26 -26 -50
-15 -17 7 -26 19 -26 35 0 16 -6 23 -21 23 -16 0 -27 -13 -44 -51 -12 -27 -31
-58 -43 -68 -20 -18 -21 -18 -37 7 -20 30 -45 24 -45 -10 0 -20 -5 -24 -31
-24 -29 0 -30 -1 -13 -17 13 -13 19 -14 22 -5 8 24 20 11 27 -27 10 -60 10
-185 -1 -191 -5 -3 -11 15 -14 40 -4 34 -10 46 -25 49 -17 3 -17 1 -6 -12 14
-18 7 -37 -14 -37 -11 0 -12 -6 -6 -22 9 -25 4 -48 -10 -48 -5 0 -9 7 -9 16 0
8 -4 13 -9 10 -13 -8 -6 -69 9 -74 7 -3 16 2 21 9 6 9 8 -1 6 -29 -2 -24 -10
-48 -18 -52 -7 -5 -10 -12 -6 -17 5 -4 12 -2 16 5 4 7 15 10 24 6 17 -6 24 12
25 73 1 24 -2 31 -13 26 -11 -4 -15 2 -15 21 0 31 3 31 35 10 25 -16 25 -19
25 -138 -1 -227 10 -406 26 -406 10 0 14 -14 14 -51 0 -46 -2 -50 -16 -38 -11
9 -14 22 -10 41 4 18 -1 41 -14 63 -11 20 -20 46 -20 60 0 13 -4 27 -10 30 -6
4 -6 12 1 23 7 12 7 25 0 45 -11 29 -41 37 -41 11 0 -10 -6 -14 -15 -10 -10 3
-15 -1 -15 -13 0 -10 7 -21 15 -24 11 -5 13 -21 10 -78 -4 -59 -2 -74 11 -84
10 -7 14 -17 9 -25 -6 -9 -9 -9 -15 0 -9 15 -35 1 -35 -19 0 -26 -24 -23 -31
3 -9 36 -24 32 -24 -6 0 -17 -3 -29 -6 -25 -10 9 -43 -25 -37 -39 3 -8 -1 -14
-9 -14 -17 0 -22 48 -7 66 9 11 8 14 -5 14 -9 0 -16 -7 -16 -15 0 -10 -10 -15
-30 -15 -33 0 -37 10 -16 43 7 12 14 43 14 69 0 25 5 55 11 65 8 14 10 6 11
-39 0 -52 2 -56 23 -54 12 2 32 9 44 16 18 11 24 12 37 1 9 -8 16 -9 16 -3 0
6 -5 12 -12 14 -7 3 -12 24 -13 51 0 36 4 49 18 53 21 7 23 34 2 34 -8 0 -15
5 -15 10 0 6 4 10 10 10 5 0 -2 12 -16 28 -32 33 -66 38 -79 10 -6 -11 -14
-19 -20 -17 -16 6 -7 72 12 91 20 19 73 35 73 22 1 -40 50 -38 50 2 0 13 5 24
10 24 6 0 10 5 10 12 0 9 -3 9 -12 0 -18 -18 -38 -14 -38 8 0 11 -4 20 -10 20
-5 0 -10 10 -10 21 0 16 5 20 20 16 11 -3 18 -1 15 4 -4 5 -2 25 4 44 8 29 7
37 -5 42 -21 8 -29 -4 -14 -22 7 -9 11 -18 8 -20 -3 -3 -10 7 -17 23 -8 15
-18 36 -23 46 -8 14 -7 22 4 30 7 6 12 19 10 28 -4 19 24 37 53 35 17 -2 20 5
23 51 3 46 1 52 -17 52 -11 0 -22 6 -24 13 -2 6 -3 0 -1 -15 5 -36 -7 -35 -29
2 -11 18 -30 33 -50 38 -29 8 -32 6 -35 -15 -2 -13 -7 -23 -12 -23 -5 0 -18
-9 -28 -20 -18 -19 -21 -19 -48 -5 -16 8 -24 15 -19 15 6 0 -10 12 -34 25 -24
14 -46 24 -48 22 -2 -2 6 -16 18 -30 11 -15 17 -31 14 -37 -3 -6 1 -13 9 -16
31 -12 16 -26 -24 -22 -33 3 -40 0 -43 -17 -4 -18 -4 -18 -6 3 0 12 -6 22 -12
22 -6 0 -9 -7 -6 -15 4 -8 -6 -28 -21 -45 -31 -35 -57 -41 -47 -9 9 28 -36 73
-64 64 -17 -5 -21 -2 -21 19 0 32 -46 69 -77 61 -19 -4 -23 -1 -23 20 0 16 -6
25 -15 25 -9 0 -18 6 -21 14 -5 14 -62 15 -83 2 -14 -9 -39 4 -44 22 -4 15 -5
14 -6 -1 -2 -30 -27 -48 -55 -41 -20 5 -27 2 -33 -12 -9 -24 -23 -34 -50 -34
l-23 0 0 -2675 0 -2675 55 0 55 0 0 33 c0 29 5 36 45 55 l46 22 1067 0 c1018
0 1069 -1 1116 -19 62 -23 76 -42 76 -104 0 -33 4 -47 12 -45 15 5 30 58 17
58 -6 0 -7 6 -2 13 14 23 11 36 -13 52 -18 11 -24 25 -24 50 0 22 5 35 13 35
14 -1 56 -43 82 -83 9 -15 22 -27 27 -27 27 0 94 -93 102 -142 4 -23 10 -45
15 -48 20 -14 62 -166 90 -325 12 -70 40 -177 51 -197 15 -26 12 -65 -5 -72
-24 -9 -17 -42 14 -68 40 -34 49 -56 55 -126 2 -34 8 -66 11 -72 10 -17 -5
-90 -19 -90 -7 0 -18 -11 -24 -25 -6 -13 -29 -36 -52 -51 -22 -15 -40 -32 -40
-39 0 -7 -7 -18 -15 -25 -8 -7 -15 -20 -15 -29 0 -9 -10 -21 -22 -26 -12 -6
-35 -27 -51 -47 -25 -31 -28 -40 -17 -53 10 -12 9 -20 -4 -40 -9 -14 -20 -25
-24 -25 -5 0 -19 -10 -32 -22 l-23 -22 6 30 c5 30 -7 64 -23 64 -5 0 -17 -14
-26 -32 -16 -31 -16 -32 10 -55 27 -23 27 -43 0 -43 -8 0 -14 -4 -14 -9 0 -12
-67 -81 -78 -81 -16 0 -22 13 -11 26 6 7 9 21 7 30 -4 22 -125 -150 -177 -253
-55 -108 -91 -204 -91 -240 0 -16 -7 -43 -15 -59 -16 -34 -65 -210 -65 -237 0
-10 4 -15 10 -12 5 3 10 1 10 -4 0 -6 -5 -11 -11 -11 -6 0 -8 -8 -5 -18 4 -11
-1 -25 -12 -35 -11 -10 -25 -36 -33 -60 -7 -23 -19 -45 -26 -50 -16 -10 -33
-71 -33 -120 0 -21 -13 -68 -29 -106 -16 -37 -36 -92 -45 -123 -8 -30 -23 -68
-31 -84 -21 -40 -20 -74 3 -74 21 0 62 76 62 114 0 13 7 29 15 36 23 19 30
-13 11 -51 -9 -18 -16 -47 -16 -66 l0 -33 2658 0 2659 0 12 78 c56 361 55 383
-19 523 -17 31 -30 62 -30 69 0 7 -21 55 -47 107 -25 51 -43 96 -39 100 20 20
111 -92 193 -237 20 -36 49 -78 65 -94 20 -20 28 -37 26 -55 -3 -22 -9 -26
-40 -29 -37 -3 -48 -18 -29 -38 6 -5 12 -57 15 -117 4 -87 2 -119 -14 -170
-10 -34 -23 -79 -28 -99 l-10 -38 149 0 149 0 -16 37 c-9 21 -27 70 -39 108
-13 39 -30 84 -39 100 -9 17 -16 36 -16 43 0 8 -6 26 -14 40 -15 30 -31 68
-40 95 -10 31 27 19 67 -22 38 -39 163 -101 204 -101 11 0 53 -8 94 -19 41
-10 103 -19 139 -20 101 -2 140 -23 175 -96 8 -16 26 -48 40 -70 15 -22 31
-52 38 -68 l12 -27 332 0 c183 1 333 4 333 8 -1 11 -48 62 -58 62 -4 0 -14 15
-22 34 -7 19 -22 37 -32 39 -11 3 -18 11 -17 19 3 29 -3 40 -51 90 -28 28 -49
57 -49 62 3 26 -2 46 -15 58 -7 8 -17 25 -21 38 -4 14 -21 41 -36 60 -16 19
-29 38 -29 43 0 7 -7 17 -40 56 -8 10 -16 24 -18 32 -2 8 -8 16 -13 17 -5 2
-16 19 -24 38 -8 19 -19 34 -24 34 -6 0 -11 7 -11 15 0 7 -7 18 -16 23 -9 5
-16 13 -15 18 1 19 -35 83 -47 84 -6 0 -11 3 -10 7 4 15 -23 53 -37 53 -14 0
-29 32 -34 71 -1 6 -10 8 -23 3 -21 -6 -21 -5 -9 10 14 17 3 34 -65 101 -5 5
-23 29 -38 53 -16 23 -33 42 -37 42 -5 0 -9 6 -9 13 0 8 -12 24 -26 38 -14 13
-38 47 -55 75 -16 28 -36 57 -44 64 -8 7 -25 32 -37 57 -44 88 -103 116 -161
78 -13 -8 -44 -15 -70 -16 -26 -1 -47 -6 -47 -10 0 -5 -17 -11 -37 -15 -21 -3
-43 -12 -48 -19 -6 -7 -19 -14 -30 -16 -40 -8 -24 -34 52 -89 43 -30 89 -67
103 -82 14 -14 39 -34 56 -45 67 -38 185 -123 224 -160 23 -21 49 -42 58 -47
17 -9 60 -46 90 -80 9 -10 26 -26 36 -35 43 -36 196 -196 219 -231 9 -13 17
-35 17 -48 0 -21 53 -102 73 -110 4 -2 7 -24 7 -48 0 -34 6 -51 25 -72 14 -15
25 -31 25 -35 0 -5 11 -23 25 -41 14 -18 25 -40 25 -49 0 -9 5 -19 11 -22 6
-4 8 -13 5 -20 -3 -8 2 -19 10 -25 17 -15 18 -79 1 -100 -7 -8 -27 -20 -46
-27 -43 -15 -63 -5 -96 48 -18 28 -41 47 -80 64 -29 14 -57 25 -62 25 -4 0
-19 9 -33 20 -31 24 -9 27 43 5 20 -8 46 -15 57 -15 12 0 38 -11 58 -25 45
-31 52 -31 52 -2 0 14 -12 32 -30 46 -21 15 -29 28 -25 40 3 10 -1 24 -10 31
-8 7 -13 20 -10 29 3 10 -11 31 -35 56 -21 22 -39 48 -40 58 0 10 -27 47 -60
82 -33 35 -60 74 -60 85 0 11 -7 20 -15 20 -8 0 -15 7 -15 15 0 9 -9 15 -24
15 -30 0 -42 16 -26 35 10 11 7 15 -14 21 -14 3 -36 18 -49 34 -13 15 -36 30
-51 34 -16 4 -43 21 -60 39 -17 18 -43 39 -58 47 -78 44 -137 80 -142 89 -4 5
-32 22 -63 36 -31 15 -65 36 -77 47 -12 11 -38 29 -59 39 -37 19 -101 65 -142
102 -47 42 -85 68 -126 85 -25 11 -50 27 -58 36 -14 17 -51 22 -51 7 0 -5 11
-22 24 -38 26 -31 66 -102 66 -118 0 -13 45 -55 59 -55 11 0 16 -42 5 -52 -3
-4 -17 0 -32 8 -15 8 -33 14 -39 14 -7 0 -13 7 -13 15 0 8 -4 15 -10 15 -5 0
-13 12 -16 28 -4 15 -12 33 -18 41 -6 7 -16 27 -22 45 -35 92 -51 124 -81 154
-18 19 -30 38 -27 43 3 5 -2 9 -10 9 -19 0 -21 16 -3 23 6 2 8 8 4 13 -4 5
-12 2 -17 -6 -7 -11 -12 -9 -29 11 -11 13 -20 29 -21 36 0 7 -8 17 -17 22 -15
9 -16 12 -4 20 16 10 8 41 -11 41 -7 0 -28 31 -47 68 -51 103 -100 171 -143
199 -42 28 -48 43 -18 43 12 0 24 -9 28 -21 8 -20 14 -21 167 -20 99 1 177 -3
207 -11 44 -11 56 -10 121 11 40 13 90 32 112 41 57 25 102 38 160 45 28 3 75
10 105 15 30 5 106 12 168 16 130 8 319 52 334 78 5 8 19 16 31 15 30 0 76 10
112 26 17 7 54 16 84 20 30 4 75 19 100 33 87 47 120 62 140 62 11 0 32 7 48
15 15 8 40 17 56 20 15 3 27 10 27 17 0 7 -17 9 -57 3 -32 -4 -79 -7 -105 -6
-25 1 -49 -3 -53 -9 -3 -6 -14 -7 -23 -2 -9 4 -69 6 -132 4 -63 -2 -259 -5
-435 -7 -398 -4 -815 -14 -875 -20 -25 -2 -154 -5 -287 -6 l-243 -1 0 -28 c0
-16 5 -41 12 -57 6 -15 12 -71 13 -123 1 -52 15 -171 30 -265 36 -213 44 -362
20 -379 -9 -6 -17 -25 -18 -41 -1 -17 -8 -30 -15 -29 -30 2 -34 5 -28 20 4 10
2 14 -6 10 -7 -3 -21 -9 -30 -12 -10 -4 -18 -10 -18 -15 0 -5 -9 -9 -21 -9
-11 0 -17 4 -14 10 3 5 8 20 10 32 3 12 10 26 16 32 9 8 10 8 5 -1 -4 -7 -2
-13 4 -13 7 0 10 6 7 13 -2 6 -16 12 -30 11 -19 0 -24 3 -16 12 7 8 7 14 -1
19 -5 3 -10 13 -10 22 0 9 3 13 7 10 3 -4 13 -1 21 6 13 10 14 8 9 -15 -4 -16
-3 -30 4 -34 15 -9 29 14 29 50 0 21 -4 27 -15 22 -8 -3 -15 -1 -15 4 0 6 4
10 10 10 11 0 1 63 -12 68 -11 5 -10 39 2 47 6 3 10 11 10 17 0 7 -5 6 -14 -1
-21 -18 -32 6 -12 28 28 31 20 58 -20 71 -30 10 -35 16 -29 34 3 11 10 35 14
52 10 36 30 75 31 57 0 -18 30 -16 30 2 0 8 -9 19 -21 26 -16 8 -20 17 -15 39
3 18 1 30 -7 33 -9 3 -9 8 2 20 10 12 10 17 1 17 -8 0 -9 10 -5 31 5 21 3 34
-5 39 -17 11 -4 60 16 60 9 0 12 5 8 11 -4 7 -8 38 -10 70 -2 46 1 59 12 59 8
0 14 -5 14 -11 0 -5 5 -7 11 -3 7 4 1 14 -16 28 -18 15 -24 27 -20 39 4 9 11
17 16 17 5 0 9 5 9 12 0 9 -3 9 -12 0 -16 -16 -28 -15 -28 3 0 8 3 15 8 15 4
0 7 30 8 67 2 150 4 187 13 178 8 -9 14 -56 25 -188 2 -27 7 -51 10 -54 10
-11 385 -6 956 12 74 2 284 7 465 11 182 3 359 8 395 9 36 2 225 6 420 9 195
4 499 11 675 16 176 5 460 12 630 15 171 3 344 8 385 10 41 2 132 4 203 5
l127 0 -2 2287 c-2 1818 -6 2287 -15 2291 -7 2 -13 -4 -13 -12 0 -24 -26 -30
-62 -15 -25 10 -33 10 -36 0 -3 -9 -10 -7 -24 6 -20 18 -20 17 -14 -4 8 -25
-7 -32 -21 -10 -13 20 -75 37 -139 38 -78 1 -107 10 -119 37 -8 19 -17 22 -68
22 -41 0 -59 4 -63 14 -3 8 -19 18 -35 21 -54 12 -79 57 -38 68 12 3 18 10 14
17 -4 6 -13 9 -21 6 -9 -3 -14 2 -14 14 0 12 -7 21 -17 21 -40 4 -49 6 -65 13
-9 4 -25 6 -35 3 -14 -3 -12 -7 12 -17 l30 -14 -50 -7 c-29 -4 -64 -3 -84 3
-48 15 -203 2 -217 -17 -13 -17 -44 -20 -44 -5 0 13 -121 13 -154 0 -41 -15
-52 -5 -52 48 1 45 0 47 -26 44 -17 -2 -30 3 -36 14 -7 12 -18 15 -40 12 -17
-2 -29 -1 -26 4 3 4 -4 8 -15 8 -14 0 -21 -6 -21 -19 0 -11 -9 -23 -20 -26
-11 -4 -31 -17 -43 -30 -24 -25 -54 -34 -74 -22 -7 4 -20 -1 -30 -12 -18 -19
-30 -20 -155 -12 -10 1 -18 8 -18 17 0 13 -7 15 -32 10 -65 -13 -194 -21 -258
-16 -36 3 -85 2 -109 -2 -29 -5 -49 -4 -58 4 -10 8 -19 8 -38 -2 -13 -7 -38
-10 -55 -8 -23 4 -35 0 -43 -14 -7 -10 -19 -18 -28 -18 -23 0 -43 -26 -35 -46
3 -8 3 -26 0 -40 -6 -23 -9 -24 -109 -24 -102 0 -103 0 -109 -26 -7 -27 -32
-28 -30 0 1 9 -2 16 -7 16 -5 0 -9 -7 -9 -16 0 -11 -6 -14 -21 -9 -18 6 -20 4
-14 -14 6 -19 3 -21 -32 -18 -37 2 -43 6 -43 28 0 8 4 8 14 0 23 -19 29 5 10
40 l-16 32 -16 -26 c-19 -31 -27 -34 -36 -11 -3 8 -2 13 3 10 5 -3 11 1 15 9
7 19 -34 21 -52 3 -17 -17 -26 -3 -13 20 9 17 26 21 116 27 77 5 105 10 105
20 0 28 -71 39 -130 20 -11 -3 -24 1 -32 10 -7 8 -25 28 -40 45 -29 31 -35 54
-18 65 5 3 7 18 4 33 -5 23 -1 30 20 40 22 10 56 66 56 92 0 17 -34 20 -62 6
-40 -20 -66 -10 -36 14 l22 17 -24 -1 c-22 -1 -25 -6 -25 -41 0 -33 3 -39 18
-37 21 4 23 -24 2 -32 -8 -3 -15 -1 -15 4 0 6 -5 10 -11 10 -6 0 -9 -12 -7
-27 2 -14 -2 -28 -9 -30 -9 -3 -12 12 -11 54 1 32 -2 82 -6 111 -8 52 -8 52
19 52 19 0 29 6 32 21 5 16 12 20 31 16 39 -7 90 21 102 57 6 19 7 63 2 111
l-7 80 -42 3 c-38 3 -43 1 -49 -23 -4 -15 -2 -31 4 -37 12 -12 4 -76 -13 -101
-11 -16 -13 -13 -18 25 -3 24 -6 72 -7 107 0 36 -7 78 -15 94 -10 21 -12 34
-5 41 5 5 10 18 10 28 0 26 25 22 48 -7 11 -13 22 -22 25 -19 3 3 10 -4 17
-15 14 -27 30 -27 30 1 0 26 -21 88 -30 88 -12 0 2 65 17 82 9 10 12 25 8 37
-3 11 -8 76 -10 143 -4 141 -26 220 -64 226 -27 4 -28 -15 -1 -23 13 -4 20
-16 21 -33 2 -29 5 -61 9 -77 5 -22 -1 -46 -10 -40 -15 9 -25 -24 -11 -38 16
-16 14 -37 -4 -37 -8 0 -15 9 -15 20 0 19 -10 24 -37 21 -6 -1 -12 6 -11 16 0
10 -3 70 -8 133 -12 180 -12 185 9 184 25 -2 21 18 -8 39 -25 18 -25 18 -26
-5 -3 -125 -5 -628 -2 -645 3 -14 10 -20 19 -16 8 3 17 -3 21 -13 4 -10 2 -19
-5 -22 -7 -2 -12 -10 -12 -18 0 -8 -5 -14 -10 -14 -7 0 -7 -6 -1 -19 6 -10 10
-77 8 -150 -1 -128 -2 -133 -29 -166 -16 -18 -38 -35 -51 -37 -30 -4 -32 -53
-2 -53 30 0 32 -10 23 -77 -5 -37 -4 -75 2 -97 14 -52 13 -131 -3 -131 -19 0
-39 38 -29 57 5 9 7 24 5 33 -3 10 0 27 6 38 9 17 7 24 -15 41 -18 14 -34 18
-53 15 -25 -5 -29 -2 -36 23 -5 15 -7 34 -6 41 2 10 -2 10 -18 0 -27 -16 -37
-4 -22 28 14 32 5 49 -15 29 -9 -8 -20 -13 -24 -10 -5 3 -60 7 -122 8 -113 2
-113 2 -125 30 -11 24 -14 26 -37 16 -20 -9 -29 -9 -43 2 -15 11 -16 11 -5 -1
18 -20 15 -38 -8 -45 -15 -5 -18 -12 -13 -36 3 -17 1 -29 -5 -29 -12 0 -22 34
-22 78 0 29 -3 32 -30 32 -16 0 -30 -5 -30 -11 0 -7 -10 -9 -27 -5 -16 4 -61
13 -100 20 -61 12 -78 20 -106 49 -25 27 -30 39 -22 51 14 22 -16 50 -44 41
-29 -9 -26 -25 9 -70 17 -21 30 -42 30 -46 0 -5 6 -9 14 -9 8 0 17 -11 20 -25
4 -15 24 -37 49 -53 48 -30 118 -86 186 -148 50 -45 138 -97 145 -85 3 4 -4
20 -15 37 -10 16 -19 35 -19 42 0 19 25 14 45 -8 10 -11 24 -20 32 -20 7 0 13
-3 13 -7 0 -5 15 -24 33 -44 29 -34 33 -35 47 -21 8 9 14 19 13 22 -1 3 1 7 3
9 2 2 4 -3 4 -12 0 -11 8 -17 23 -17 31 -1 54 -21 63 -54 4 -16 15 -31 25 -33
11 -3 19 -10 19 -15 0 -7 18 -9 44 -6 32 4 52 0 71 -12 14 -9 48 -18 77 -19
50 -1 68 -11 68 -39 0 -9 -12 -12 -37 -10 -28 2 -38 -1 -39 -12 0 -8 -2 -28
-2 -44 -2 -24 -4 -27 -17 -16 -12 10 -16 9 -21 -4 -8 -20 -18 -20 -39 0 -9 9
-13 24 -10 35 5 14 2 17 -9 13 -9 -3 -16 -10 -16 -15 0 -4 -6 -6 -14 -3 -29
11 -24 -14 9 -48 20 -20 60 -45 93 -58 62 -23 153 -67 220 -105 23 -14 56 -25
72 -25 16 0 33 -6 37 -12 9 -14 7 -13 223 -126 80 -41 156 -81 170 -89 14 -7
34 -13 44 -13 11 0 27 -6 35 -13 9 -8 47 -26 84 -41 38 -15 97 -45 130 -67 34
-22 73 -43 86 -46 14 -3 40 -17 59 -30 19 -12 38 -23 43 -23 4 0 25 -11 45
-25 20 -14 55 -30 78 -36 22 -6 68 -25 101 -43 33 -17 87 -40 120 -50 115 -35
204 -91 182 -113 -10 -9 -142 -16 -327 -15 -188 0 -256 8 -450 52 -142 31
-193 42 -210 42 -8 0 -46 8 -85 18 -38 10 -104 23 -145 30 -81 12 -203 36
-263 51 -24 6 -43 6 -54 0 -23 -12 -27 -11 190 -51 104 -19 203 -43 252 -61
100 -36 93 -32 67 -37 -13 -2 -47 4 -74 13 -28 9 -75 18 -107 19 -31 2 -83 11
-116 20 -33 8 -79 15 -103 16 -23 0 -53 7 -66 15 -13 9 -36 15 -52 15 -42 -2
-235 20 -247 27 -11 7 -41 12 -102 18 -22 3 -103 11 -180 19 -77 8 -142 13
-144 10 -2 -2 -10 1 -18 8 -8 6 -37 11 -66 10 -28 0 -103 6 -167 14 -150 20
-345 33 -605 40 -208 6 -282 15 -182 23 53 4 70 4 347 2 149 -1 283 -10 475
-31 50 -6 144 -12 210 -15 66 -3 163 -12 215 -21 150 -25 171 -27 182 -16 7 7
-3 12 -33 16 -24 3 -62 8 -84 11 -22 3 -105 12 -185 19 -80 8 -179 19 -220 25
-101 14 -468 39 -610 42 -404 8 -1231 -10 -1410 -31 -67 -8 -418 -28 -490 -28
-41 0 -328 -34 -350 -41 -14 -5 -72 -19 -130 -31 -58 -12 -138 -31 -178 -41
-40 -11 -90 -19 -111 -19 -21 0 -44 -6 -50 -14 -6 -8 -41 -17 -79 -20 -59 -6
-119 -18 -290 -56 -23 -6 -51 -10 -62 -10 -11 0 -60 -9 -108 -20 -86 -19 -340
-70 -477 -95 -38 -7 -86 -20 -105 -28 -57 -25 -141 -49 -156 -43 -7 3 -16 1
-19 -4 -4 -6 -23 -10 -45 -10 -24 0 -40 -5 -44 -15 -3 -10 -19 -15 -44 -15
-25 0 -50 -9 -72 -25 -19 -14 -41 -25 -50 -24 -46 4 -82 -3 -99 -20 -10 -10
-40 -22 -67 -26 -27 -4 -56 -13 -65 -21 -9 -8 -39 -16 -68 -19 -28 -2 -58 -10
-66 -19 -8 -8 -33 -17 -56 -21 -50 -9 -107 -31 -125 -50 -8 -7 -23 -11 -34 -8
-11 3 -28 -1 -38 -9 -9 -9 -34 -19 -55 -22 -21 -4 -53 -16 -70 -27 -18 -10
-40 -19 -51 -19 -10 0 -35 -8 -55 -19 -60 -30 -104 -47 -179 -67 -7 -2 -11 -8
-8 -13 3 -5 -7 -11 -23 -14 -16 -3 -35 -12 -42 -19 -31 -31 -87 -68 -101 -68
-8 0 -25 -11 -38 -25 -13 -14 -29 -25 -36 -25 -7 0 -17 -6 -21 -14 -4 -8 -80
-62 -168 -122 -88 -59 -167 -115 -175 -124 -8 -9 -41 -36 -73 -60 -63 -47
-227 -217 -227 -235 0 -6 -11 -22 -25 -35 l-25 -23 0 30 c0 17 7 36 15 43 8 7
15 21 15 32 0 29 29 78 45 78 8 0 14 4 12 9 -4 14 62 99 97 126 18 13 50 31
72 39 39 13 77 41 117 84 11 12 25 22 30 22 8 0 36 23 109 93 16 15 39 49 50
75 31 72 65 112 94 112 31 0 84 50 84 79 0 20 32 46 43 34 10 -9 57 26 57 42
0 21 41 84 75 115 32 29 55 81 55 121 0 26 3 29 35 29 l35 0 1 68 c0 57 2 63
11 40 5 -16 16 -28 24 -28 8 0 22 12 32 28 25 38 68 86 136 151 33 31 67 64
75 75 35 42 225 226 233 226 5 0 12 -9 16 -20 5 -13 12 -16 21 -11 10 6 10 13
3 28 -13 23 6 67 28 69 26 2 50 16 50 30 0 7 24 31 53 52 28 22 61 49 71 61
l20 22 22 -26 c20 -23 25 -25 43 -13 26 16 27 43 4 58 -13 8 -15 13 -5 16 7 3
19 12 26 20 19 18 36 18 36 -1 0 -8 -7 -15 -15 -15 -8 0 -15 -4 -15 -10 0 -5
3 -10 7 -10 6 0 103 60 103 64 0 1 -19 0 -42 -2 l-43 -4 23 23 c17 19 33 24
70 23 48 0 72 13 72 40 0 17 38 35 115 58 38 11 51 19 53 36 2 14 12 24 30 28
50 10 70 23 74 45 2 12 15 31 30 42 27 20 28 20 49 1 21 -19 21 -19 40 5 10
13 19 29 19 37 0 8 9 14 19 14 11 0 23 5 27 11 3 6 16 8 27 5 15 -4 30 5 57
34 35 38 70 53 70 30 0 -5 7 -10 15 -10 8 0 15 4 15 8 0 13 74 42 106 42 42 0
58 18 38 41 -15 17 -13 18 20 24 21 4 36 13 36 21 0 47 242 118 373 109 67 -4
99 7 141 48 44 43 67 56 132 73 32 8 65 21 74 28 15 14 86 34 275 80 160 39
317 59 594 77 193 12 947 5 1141 -11 185 -15 371 -38 430 -54 75 -19 263 -86
275 -97 5 -5 16 -9 24 -9 8 0 44 -14 80 -31 36 -17 80 -37 96 -44 17 -7 56
-24 88 -39 32 -14 60 -26 64 -26 4 0 14 -6 22 -14 17 -14 228 -126 238 -126
15 0 -126 102 -167 121 -25 12 -59 32 -76 44 -32 24 -146 85 -159 85 -7 0 -68
26 -98 41 -29 16 -150 60 -173 64 -12 1 -65 17 -119 34 -412 131 -1419 168
-2061 76 -289 -42 -555 -112 -739 -195 -33 -15 -76 -31 -95 -35 -42 -8 -107
-29 -169 -54 -72 -29 -130 -45 -138 -38 -3 4 1 7 10 7 9 0 17 5 17 10 0 6 12
16 28 23 38 17 132 110 132 130 0 9 7 17 15 17 8 0 15 6 15 14 0 25 139 126
173 126 8 0 20 6 26 14 6 8 33 24 59 36 26 12 65 31 87 42 39 20 92 43 165 69
19 7 49 18 67 26 17 7 44 13 59 13 15 0 55 13 88 29 103 48 167 63 181 41 8
-13 75 -13 75 -1 0 5 14 20 31 32 l31 22 -7 -22 c-5 -16 -2 -21 12 -21 10 0
25 5 33 10 13 8 11 11 -7 16 -31 9 -29 22 2 16 14 -2 25 -8 25 -13 0 -17 25
-9 38 12 7 11 19 18 27 16 7 -3 21 3 31 14 10 11 25 17 35 14 10 -3 26 -2 36
4 34 18 131 30 201 24 42 -3 83 -1 105 6 20 7 75 14 124 17 48 2 106 7 128 10
63 8 69 8 91 0 15 -4 27 -1 38 9 12 12 20 14 36 5 11 -6 25 -8 30 -5 10 6 133
7 293 1 48 -2 90 1 93 6 4 5 10 5 17 0 7 -5 44 -13 82 -16 39 -3 103 -12 143
-19 53 -10 75 -10 82 -2 5 6 24 12 42 13 61 4 108 14 108 23 0 5 11 9 25 9 32
0 43 26 20 48 -17 16 -17 16 -12 -1 4 -11 3 -16 -3 -12 -6 4 -25 -3 -44 -14
-47 -29 -134 -45 -166 -30 -56 26 -75 38 -78 52 -3 14 36 27 84 27 27 0 28 3
14 30 -9 17 -14 18 -36 8 -21 -10 -27 -9 -35 4 -6 12 -20 14 -58 10 -67 -6
-101 3 -101 28 0 28 -63 28 -87 0 -18 -21 -57 -27 -68 -11 -3 5 -30 7 -59 4
-64 -7 -106 2 -106 21 0 7 -7 19 -15 26 -17 14 -20 46 -4 55 14 9 178 6 259
-4 75 -10 148 4 168 31 7 10 19 18 25 18 16 0 39 38 32 50 -11 17 -59 37 -84
35 -19 -1 -25 -8 -28 -31 -6 -46 -11 -54 -36 -54 -14 0 -30 -7 -37 -15 -9 -10
-23 -14 -39 -11 -14 3 -76 11 -138 17 -122 11 -153 5 -153 -32 0 -18 -4 -20
-32 -16 -18 4 -53 2 -78 -4 -25 -6 -63 -12 -85 -13 -22 -2 -65 -8 -95 -14 -30
-6 -94 -14 -142 -18 -64 -4 -88 -9 -88 -19 0 -18 -34 -29 -90 -32 -25 -1 -97
-6 -160 -12 -63 -5 -159 -10 -213 -10 -54 -1 -108 -6 -119 -12 -12 -6 -89 -14
-172 -16 -117 -4 -155 -9 -168 -21 -28 -24 -22 -60 17 -99 28 -28 41 -34 67
-31 27 2 33 8 34 27 1 13 8 27 15 32 25 15 100 22 111 11 12 -12 4 -17 -37
-24 -15 -3 -19 -11 -18 -33 3 -40 -28 -71 -86 -84 -58 -14 -96 -4 -162 43 -27
20 -53 36 -57 36 -5 0 -17 -10 -28 -21 -29 -33 -112 -92 -174 -123 -30 -16
-74 -41 -98 -57 -24 -16 -45 -29 -48 -29 -5 0 -73 -48 -84 -60 -3 -3 -25 -19
-50 -35 -24 -17 -53 -38 -63 -48 -10 -10 -37 -30 -60 -45 -70 -45 -160 -114
-190 -145 -15 -16 -30 -28 -32 -25 -3 3 -2 23 3 44 7 35 20 49 142 141 74 56
167 122 205 146 96 60 274 166 309 185 43 22 136 120 136 142 0 22 -11 25 -38
11 -9 -5 -37 -15 -62 -22 -25 -7 -49 -16 -55 -21 -5 -4 -18 -8 -30 -8 -11 0
-31 -9 -45 -20 -14 -11 -30 -20 -36 -20 -6 0 -19 -9 -29 -20 -10 -11 -27 -20
-37 -20 -10 0 -21 -7 -24 -15 -4 -8 -12 -15 -19 -15 -7 0 -23 -11 -36 -25 -43
-45 -295 -155 -357 -155 -27 0 -41 26 -35 66 3 18 -2 44 -10 60 l-14 28 -13
-24 c-12 -22 -9 -84 6 -137 4 -14 2 -23 -4 -23 -6 0 -12 10 -14 22 -4 27 -28
36 -28 11 0 -27 -19 -43 -50 -43 -39 0 -44 -11 -13 -32 l28 -18 -33 0 c-20 0
-35 6 -38 15 -4 8 -17 15 -29 15 -13 0 -26 4 -29 9 -4 5 -23 5 -46 -1 -22 -6
-37 -15 -34 -20 3 -5 15 -6 26 -2 15 5 19 2 16 -12 -4 -25 -32 -29 -52 -9 -14
15 -18 15 -31 1 -8 -8 -15 -21 -15 -30 0 -8 -4 -18 -10 -21 -5 -3 -10 1 -10 9
0 9 -7 16 -15 16 -25 0 -17 -27 10 -34 40 -10 16 -39 -60 -75 -36 -17 -65 -34
-65 -38 0 -5 -22 -31 -49 -59 -27 -28 -52 -60 -55 -72 -14 -43 -28 -23 -21 28
l7 50 -38 -3 c-31 -2 -40 2 -50 21 -6 13 -17 29 -23 35 -35 35 16 77 93 77 40
0 45 3 55 31 14 39 38 58 74 59 29 0 38 26 12 36 -8 4 -15 17 -15 30 0 13 -3
25 -7 25 -53 8 -63 7 -63 -9 -1 -35 -24 -51 -60 -43 -34 7 -35 8 -32 52 4 48
14 59 54 59 18 0 29 7 33 21 4 12 12 18 21 15 10 -4 14 2 14 19 0 14 4 25 8
25 4 0 28 18 52 40 32 29 58 42 97 50 37 8 62 20 79 39 15 17 44 32 75 40 42
11 49 15 35 23 -26 15 -113 -3 -166 -33 -8 -5 -36 -19 -62 -31 -27 -12 -48
-25 -48 -30 0 -4 -6 -8 -13 -8 -7 0 -28 -13 -47 -28 -19 -16 -48 -36 -65 -44
-81 -42 -133 -72 -166 -99 -20 -16 -43 -29 -50 -29 -18 1 38 50 55 50 8 0 16
6 19 14 3 8 24 24 46 37 23 12 41 26 41 30 0 4 4 19 10 34 8 22 13 24 30 15
17 -9 19 -7 18 17 -1 16 2 37 7 47 6 14 5 17 -4 12 -6 -4 -18 -2 -26 4 -8 7
-21 10 -28 7 -8 -3 -20 -1 -27 3 -8 5 -19 2 -28 -6 -8 -9 -22 -12 -35 -8 -16
5 -19 3 -13 -11 5 -15 4 -16 -8 -6 -14 12 -11 45 3 36 4 -2 8 1 9 8 1 7 4 24
8 39 4 19 1 32 -10 44 -16 15 -17 15 -10 -10 3 -14 3 -26 0 -26 -16 0 -43 41
-44 66 -1 50 -5 63 -15 57 -5 -3 -7 0 -5 8 3 8 11 13 17 11 7 -1 9 3 6 9 -5 8
-10 8 -18 0 -6 -6 -17 -11 -24 -11 -24 0 -13 25 22 53 39 31 42 39 20 60 -13
13 -13 17 0 27 9 8 13 21 9 35 -9 36 11 63 42 57 24 -4 25 -3 15 16 -9 17 -9
21 2 16 8 -3 19 2 26 10 7 8 19 12 27 9 8 -3 14 -1 14 5 0 14 -26 33 -33 25
-4 -3 -7 -1 -7 5 0 7 7 12 15 12 9 0 12 6 9 15 -4 8 -12 15 -20 15 -8 0 -14 7
-14 16 0 11 -6 14 -21 9 -18 -6 -20 -4 -14 17 11 34 33 76 45 83 11 7 4 25
-10 25 -4 0 -26 -22 -49 -48z m-148 -252 c-3 -11 -7 -20 -9 -20 -2 0 -4 9 -4
20 0 11 4 20 9 20 5 0 7 -9 4 -20z m-943 -16 c0 -8 -4 -12 -10 -9 -5 3 -10 10
-10 16 0 5 5 9 10 9 6 0 10 -7 10 -16z m975 -25 c-4 -5 -13 -9 -21 -9 -8 0
-12 -4 -9 -10 3 -6 -1 -7 -9 -4 -22 8 -20 17 7 30 24 11 41 8 32 -7z m-975
-13 c0 -11 -19 -15 -25 -6 -3 5 1 10 9 10 9 0 16 -2 16 -4z m-458 -218 c-7 -7
-12 -8 -12 -2 0 14 12 26 19 19 2 -3 -1 -11 -7 -17z m26 -75 c-15 -18 -26 -16
-24 4 0 10 -6 18 -16 18 -10 0 -18 5 -18 10 0 6 4 10 9 10 5 0 13 4 17 8 14
13 44 -36 32 -50z m942 33 c0 -8 -4 -17 -9 -20 -10 -7 -23 19 -14 28 11 11 23
6 23 -8z m2853 -43 c-7 -2 -19 -2 -25 0 -7 3 -2 5 12 5 14 0 19 -2 13 -5z
m-2273 -29 c0 -8 -3 -14 -7 -14 -5 0 -18 -3 -31 -6 -21 -6 -22 -5 -11 19 8 17
17 23 30 20 10 -3 19 -12 19 -19z m5558 -16 c7 -10 3 -18 -14 -31 l-24 -18 0
31 c0 32 19 41 38 18z m-5621 -35 c-1 -10 -6 -24 -11 -32 -5 -8 -3 -16 5 -22
11 -7 11 -12 2 -26 -6 -10 -16 -17 -22 -15 -6 1 -11 -7 -11 -18 0 -20 1 -20
25 -4 36 23 32 0 -6 -36 -32 -30 -43 -34 -89 -30 -32 2 -33 4 -26 28 7 22 72
92 79 85 3 -2 8 8 11 22 4 14 14 34 24 44 22 24 22 25 19 4z m2303 -13 c-8 -5
-22 -9 -30 -9 -10 0 -8 3 5 9 27 12 43 12 25 0z m3298 -53 c13 -15 -1 -42 -17
-33 -13 8 -15 46 -2 46 5 0 13 -6 19 -13z m-6228 -4 c-1 -14 -30 -47 -36 -41
-3 3 3 16 13 27 19 23 23 25 23 14z m-804 -70 c-10 -10 -19 5 -10 18 6 11 8
11 12 0 2 -7 1 -15 -2 -18z m1349 -82 c10 -17 -11 -21 -31 -6 -18 14 -18 14 3
15 12 0 24 -4 28 -9z m42 -63 c-10 -5 -33 -22 -50 -37 -18 -16 -46 -35 -64
-44 -17 -9 -37 -23 -45 -30 -21 -21 -78 -47 -78 -35 0 14 31 37 49 38 7 0 24
10 36 23 12 12 37 31 56 42 19 11 50 29 69 41 19 12 37 19 40 17 3 -2 -3 -9
-13 -15z m883 -49 c0 -5 -4 -9 -10 -9 -5 0 -10 7 -10 16 0 8 5 12 10 9 6 -3
10 -10 10 -16z m-50 -19 c0 -5 -7 -10 -15 -10 -8 0 -15 5 -15 10 0 6 7 10 15
10 8 0 15 -4 15 -10z m-142 -7 c-10 -2 -28 -2 -40 0 -13 2 -5 4 17 4 22 1 32
-1 23 -4z m-108 -55 c0 -4 -6 -8 -14 -8 -8 0 -17 4 -20 8 -2 4 4 8 15 8 10 0
19 -4 19 -8z m330 -24 c0 -3 -7 -27 -16 -55 -9 -27 -22 -75 -28 -106 -8 -38
-16 -57 -25 -55 -7 1 -18 -11 -24 -28 -8 -21 -18 -30 -34 -30 -27 0 -57 -15
-93 -47 -34 -30 -80 -47 -93 -34 -7 7 -1 22 16 45 27 35 35 66 18 66 -5 0 -20
-15 -32 -32 -13 -18 -27 -35 -32 -37 -4 -2 -12 -14 -17 -27 -5 -13 -16 -24
-24 -24 -7 0 -21 -11 -30 -25 -9 -14 -25 -25 -35 -25 -11 0 -21 -8 -24 -17 -3
-16 -5 -16 -11 -2 -11 25 31 85 129 185 88 89 144 132 215 165 19 9 55 32 78
53 41 33 62 44 62 30z m-1260 -19 c0 -8 -4 -15 -10 -15 -5 0 -10 7 -10 15 0 8
5 15 10 15 6 0 10 -7 10 -15z m79 -11 c-13 -15 -37 -33 -54 -40 -16 -8 -38
-20 -48 -27 -14 -10 -19 -9 -26 2 -11 17 -3 43 11 35 8 -5 34 6 98 42 38 21
46 17 19 -12z m211 -5 c23 -1 22 -2 -7 -11 -25 -8 -33 -17 -33 -34 0 -29 -16
-32 -23 -4 -5 21 -27 28 -27 10 0 -6 -18 -29 -41 -52 -38 -38 -40 -39 -35 -14
4 14 8 36 11 49 5 26 103 79 120 65 5 -4 20 -8 35 -9z m5688 4 c-5 -25 -28
-28 -28 -4 0 12 6 21 16 21 9 0 14 -7 12 -17z m-7214 -48 c3 -8 1 -15 -4 -15
-6 0 -10 7 -10 15 0 8 2 15 4 15 2 0 6 -7 10 -15z m-145 -21 c2 -10 8 -22 14
-26 7 -4 7 -11 -2 -22 -11 -13 -15 -13 -27 -1 -18 17 -19 78 -1 73 6 -3 14
-13 16 -24z m471 -9 c-10 -12 -16 -13 -27 -3 -13 10 -12 14 3 25 24 17 42 0
24 -22z m70 20 c0 -8 -2 -15 -4 -15 -2 0 -6 7 -10 15 -3 8 -1 15 4 15 6 0 10
-7 10 -15z m1323 -8 c11 -28 -8 -92 -31 -103 -13 -6 -33 -20 -45 -31 -27 -25
-81 -53 -101 -53 -8 0 -27 -6 -43 -14 -94 -48 -139 -57 -150 -30 -7 20 12 37
62 53 21 8 45 20 53 27 7 8 27 14 43 14 24 0 44 15 102 75 69 72 99 89 110 62z
m-1968 -6 c3 -5 -4 -12 -15 -16 -11 -3 -25 -15 -30 -25 -9 -17 -6 -20 17 -26
51 -11 48 -12 -23 -13 l-71 -1 5 27 c8 44 21 52 99 62 6 0 14 -3 18 -8z m619
-17 c4 -10 13 -13 26 -9 16 5 20 2 20 -14 0 -23 -15 -28 -24 -8 -3 8 -11 5
-24 -10 -11 -13 -32 -23 -46 -23 -24 0 -25 2 -14 23 18 31 40 57 48 57 5 0 11
-7 14 -16z m-296 0 c25 -5 52 -36 52 -59 0 -3 -30 -5 -67 -4 -56 0 -64 2 -46
11 17 8 22 18 19 34 -5 26 -3 27 42 18z m86 -9 c-4 -8 -12 -15 -20 -15 -20 0
-17 18 4 23 9 3 18 5 19 6 1 0 0 -6 -3 -14z m400 -11 c13 -35 7 -44 -34 -44
-33 0 -38 3 -33 18 15 42 55 58 67 26z m-635 -40 c2 -2 -28 -4 -68 -4 -40 0
-70 4 -67 9 5 8 125 3 135 -5z m840 -18 c9 -10 8 -23 -2 -53 -8 -22 -10 -48
-6 -59 14 -34 10 -94 -5 -94 -19 0 -26 22 -26 80 0 29 -6 52 -15 60 -22 18
-36 2 -30 -34 8 -41 -8 -55 -57 -49 l-38 5 0 67 0 66 60 2 c33 1 68 7 78 12
23 14 28 13 41 -3z m444 -33 c-3 -10 -13 -23 -21 -30 -8 -7 -25 -29 -38 -50
-23 -37 -23 -37 -24 -11 0 15 8 35 19 45 10 10 22 28 25 41 4 13 15 22 26 22
14 0 18 -5 13 -17z m5701 -11 c8 -13 -34 -44 -51 -37 -14 5 -13 8 3 25 20 20
40 25 48 12z m-4994 -77 c0 -16 -78 -70 -88 -61 -3 3 -14 -2 -24 -11 -15 -14
-21 -15 -27 -4 -10 16 -2 53 13 63 6 4 27 8 46 8 19 0 42 5 50 10 21 14 30 12
30 -5z m4827 -47 c-3 -8 -6 -5 -6 6 -1 11 2 17 5 13 3 -3 4 -12 1 -19z m-6047
-40 c18 -30 13 -67 -12 -95 -13 -14 -21 -35 -20 -55 1 -42 -14 -59 -45 -52
-22 6 -24 4 -18 -15 3 -12 2 -21 -4 -21 -6 0 -10 47 -10 124 l-1 125 43 4 c23
2 44 4 47 5 3 1 12 -8 20 -20z m203 -18 c-3 -10 -16 -26 -29 -35 -23 -15 -24
-15 -24 10 0 15 4 24 9 21 5 -3 14 1 21 9 17 21 29 19 23 -5z m194 -62 c-3 -8
-6 -5 -6 6 -1 11 2 17 5 13 3 -3 4 -12 1 -19z m873 -31 c0 -49 -23 -75 -66
-74 -19 1 -38 -4 -42 -9 -8 -12 -72 -36 -72 -27 0 13 86 99 119 120 49 31 61
29 61 -10z m-1194 -4 c3 -16 7 -32 8 -38 2 -5 11 7 20 28 10 20 22 37 27 37 6
0 5 -9 -1 -21 -7 -11 -9 -23 -6 -27 13 -12 -25 -40 -47 -34 -20 5 -20 4 -8
-11 7 -9 17 -17 22 -17 12 0 69 57 69 70 0 5 9 10 21 10 23 0 22 -10 -17 -99
-13 -29 -24 -60 -24 -68 0 -7 -7 -16 -15 -19 -8 -4 -15 -15 -15 -25 0 -23 -1
-23 43 -4 41 17 79 19 105 6 9 -5 25 -12 35 -15 25 -8 21 -43 -8 -68 -13 -11
-22 -24 -20 -28 3 -4 -4 -15 -15 -25 -11 -10 -20 -24 -20 -32 0 -18 -25 -17
-40 2 -11 13 -9 20 13 43 15 16 27 33 27 40 0 19 -45 14 -74 -9 -23 -18 -26
-26 -20 -53 3 -17 11 -37 18 -45 6 -8 10 -22 8 -32 -2 -11 9 -24 28 -35 37
-22 38 -30 4 -38 -18 -5 -24 -12 -20 -22 8 -20 -20 -29 -49 -16 -25 12 -56 62
-60 97 -4 33 -5 35 -16 35 -14 0 -39 -62 -39 -97 0 -42 -13 -55 -44 -47 -25 6
-27 10 -23 38 15 99 29 157 42 182 8 16 15 35 15 42 0 7 6 22 13 33 10 18 9
23 -10 36 -29 19 -30 43 -3 43 12 0 20 6 19 13 -3 25 1 38 11 32 17 -10 38 13
38 41 0 17 -7 28 -19 31 -13 4 -16 10 -10 22 5 9 6 22 4 29 -6 17 4 42 16 42
6 0 13 -12 17 -27z m7203 -54 c8 -15 11 -34 7 -45 -7 -17 -9 -17 -24 8 -10 18
-26 28 -46 30 -34 3 -46 24 -19 31 38 11 67 2 82 -24z m881 -74 c0 -5 -5 -3
-10 5 -5 8 -10 20 -10 25 0 6 5 3 10 -5 5 -8 10 -19 10 -25z m-8216 -24 c21
-18 20 -38 -3 -51 -30 -16 -51 -2 -51 34 0 26 4 32 19 31 11 -1 26 -7 35 -14z
m403 -39 c1 -45 -6 -51 -31 -26 -26 25 -16 77 13 72 11 -2 16 -15 18 -46z
m363 -67 c0 -8 -7 -15 -15 -15 -16 0 -20 12 -8 23 11 12 23 8 23 -8z m31 -32
c-8 -15 -10 -15 -11 -2 0 17 10 32 18 25 2 -3 -1 -13 -7 -23z m-91 -23 c-8 -5
-17 -7 -19 -4 -3 3 1 9 9 14 8 5 17 7 19 4 3 -3 -1 -9 -9 -14z m31 -44 c18 16
19 16 19 -4 0 -16 -6 -22 -22 -22 -13 0 -33 -3 -44 -6 -25 -7 -41 21 -24 42 9
10 15 9 31 -7 20 -20 22 -20 40 -3z m-70 -55 l24 -19 -48 -7 c-27 -4 -47 -13
-47 -20 0 -7 -37 -45 -82 -86 -46 -40 -107 -96 -136 -124 -29 -27 -57 -51 -62
-53 -6 -2 -10 -8 -10 -14 0 -6 -10 -23 -22 -38 -13 -15 -30 -38 -38 -50 -45
-70 -141 -150 -140 -117 1 16 25 47 36 47 18 1 54 48 48 64 -4 10 2 19 18 27
14 6 37 34 51 62 98 188 107 200 134 190 15 -6 83 26 83 39 0 5 4 8 9 8 4 0
25 16 45 35 21 19 41 35 46 35 4 0 10 9 13 20 7 26 47 26 78 1z m-333 -71
c-41 -34 -54 -22 -17 16 26 27 35 31 37 19 2 -8 -7 -24 -20 -35z m-298 -193
c0 -14 46 -66 76 -84 19 -12 19 -12 -1 -13 -14 -1 -28 -19 -49 -61 -25 -55
-27 -64 -15 -87 7 -15 14 -29 15 -32 2 -3 -4 -21 -13 -40 -8 -19 -20 -46 -25
-60 -6 -14 -14 -32 -19 -40 -5 -8 -12 -23 -15 -32 -4 -10 -10 -18 -15 -18 -12
0 -11 72 0 103 6 14 13 76 16 139 7 130 23 238 36 238 5 0 9 -6 9 -13z m4755
-127 c-3 -5 -17 -10 -30 -10 -13 0 -27 5 -30 10 -4 6 8 10 30 10 22 0 34 -4
30 -10z m-335 -10 c0 -5 -7 -10 -15 -10 -8 0 -15 5 -15 10 0 6 7 10 15 10 8 0
15 -4 15 -10z m2791 -261 c41 -14 66 -35 29 -25 -14 4 -52 13 -85 21 -58 12
-59 13 -19 14 23 0 56 -4 75 -10z m133 -25 c18 -7 22 -24 5 -24 -6 0 -17 7
-25 15 -16 16 -7 19 20 9z m109 -31 c-7 -2 -21 -2 -30 0 -10 3 -4 5 12 5 17 0
24 -2 18 -5z m597 -14 c0 -6 -4 -7 -10 -4 -5 3 -10 11 -10 16 0 6 5 7 10 4 6
-3 10 -11 10 -16z m-262 -9 c17 0 32 -4 32 -9 0 -12 -103 -22 -114 -11 -6 6
-19 11 -30 11 -15 1 -12 4 9 9 17 5 39 6 50 4 11 -2 35 -4 53 -4z m182 -10 c0
-5 -26 -9 -60 -8 -35 1 -55 5 -48 10 18 11 108 10 108 -2z m110 -18 c0 -9 -5
-24 -10 -32 -7 -11 -10 -5 -10 23 0 23 4 36 10 32 6 -3 10 -14 10 -23z m343
-239 c23 -11 35 -12 64 -2 39 13 57 3 51 -27 -3 -17 -12 -19 -68 -16 -48 3
-70 9 -85 23 -11 11 -29 27 -40 35 -19 14 -18 15 15 8 19 -3 48 -13 63 -21z
m-4453 -660 c0 -12 -8 -14 -34 -10 -19 3 -39 0 -45 -6 -8 -8 -11 -6 -11 6 0
10 10 21 22 26 30 11 68 2 68 -16z m80 -64 c16 -23 28 -45 25 -49 -5 -8 51
-24 77 -21 9 1 19 -3 23 -9 3 -5 1 -10 -4 -10 -6 0 -11 -12 -10 -27 l0 -28 11
25 c9 21 12 22 15 7 4 -14 11 -16 40 -11 25 5 38 3 44 -7 4 -7 11 -10 16 -6 4
4 2 17 -5 27 -10 17 -10 20 6 20 10 0 23 5 29 11 8 8 15 5 25 -9 7 -11 23 -20
33 -19 18 2 20 -5 22 -73 1 -41 4 -95 7 -120 2 -25 5 -55 5 -67 1 -25 48 -46
74 -32 26 15 127 21 127 8 0 -6 9 -18 20 -27 14 -12 22 -34 26 -77 6 -59 5
-60 -29 -87 -28 -22 -49 -28 -113 -34 -53 -5 -87 -13 -103 -25 -13 -11 -28
-19 -34 -19 -5 0 -29 -18 -53 -40 -44 -41 -64 -49 -64 -28 0 9 -3 8 -12 -1
-11 -11 -10 -14 0 -18 19 -7 -4 -31 -46 -49 -42 -17 -64 -4 -27 16 32 17 32
40 0 40 -14 0 -25 5 -25 11 0 5 5 7 11 3 7 -4 10 -1 7 7 -3 8 -18 15 -34 17
-16 1 -33 3 -39 3 -5 1 -14 0 -20 -1 -30 -7 -51 3 -63 30 -12 27 -17 30 -55
26 -32 -3 -45 -9 -57 -29 -12 -21 -19 -25 -45 -20 -44 8 -70 24 -56 32 9 6 8
11 -3 20 -8 7 -15 20 -15 29 0 28 -23 116 -33 129 -5 7 -7 16 -4 21 3 5 -3 17
-14 27 -11 10 -20 24 -20 32 0 14 25 18 33 6 2 -5 2 -2 1 5 -5 17 16 15 38 -5
17 -15 18 -15 18 10 0 17 -5 27 -14 27 -8 0 -18 9 -21 20 -5 15 -12 19 -28 16
-12 -3 -17 -3 -10 0 7 3 10 11 7 19 -3 7 0 16 6 20 6 4 8 15 5 25 -3 10 -1 21
5 25 5 3 10 14 10 24 0 10 11 28 25 41 14 13 25 29 25 37 0 7 5 13 11 13 6 0
9 6 6 14 -3 8 1 17 10 20 9 4 13 13 9 22 -3 9 6 32 21 54 26 36 32 39 83 43
30 2 58 4 62 5 5 1 21 -17 38 -39z m1637 -75 c26 -7 20 -34 -8 -34 -10 0 -19
2 -19 4 0 2 -3 11 -6 20 -7 17 -1 19 33 10z m-1017 -19 c6 4 19 1 28 -7 9 -8
28 -15 41 -16 13 0 31 -7 40 -15 9 -8 45 -18 81 -22 36 -4 76 -13 90 -20 36
-18 79 -24 215 -32 157 -9 193 -7 223 13 15 10 54 19 91 21 70 5 100 24 53 34
-24 5 -25 7 -7 13 11 4 32 14 46 22 23 12 28 12 43 -5 9 -9 16 -23 16 -31 0
-8 4 -9 13 -3 6 6 25 13 42 16 31 5 54 -13 55 -43 0 -8 9 -21 20 -28 17 -10
21 -10 26 3 10 26 21 16 28 -25 7 -43 8 -45 35 -30 16 8 19 5 23 -18 17 -94
-31 -424 -78 -530 -8 -18 -14 -46 -14 -63 0 -16 -11 -51 -24 -77 -13 -26 -27
-67 -31 -91 -9 -55 -32 -111 -45 -111 -6 0 -10 -9 -10 -19 0 -29 -17 -34 -45
-14 -20 14 -24 24 -20 46 2 16 1 26 -4 22 -5 -3 -13 0 -17 6 -5 9 0 10 15 6
17 -4 24 0 33 21 12 32 11 103 -3 117 -12 12 -12 38 1 30 6 -3 10 1 10 9 0 25
-54 13 -58 -13 -2 -13 2 -21 11 -21 17 0 11 -50 -8 -65 -7 -6 -15 -20 -19 -33
-4 -12 -12 -22 -17 -22 -15 0 1 -42 20 -57 13 -10 13 -11 1 -9 -24 3 -46 19
-53 39 -7 19 -27 23 -27 5 0 -6 9 -22 21 -34 22 -23 19 -44 -6 -44 -7 0 -23
-13 -35 -30 -16 -23 -18 -30 -7 -30 9 0 17 -12 19 -30 5 -34 1 -37 -18 -12
-14 19 -35 23 -46 7 -13 -17 -9 -27 7 -21 9 3 15 0 15 -9 0 -8 -9 -15 -20 -15
-12 0 -20 -7 -20 -17 0 -12 -8 -18 -25 -19 -21 -2 -25 2 -20 16 4 12 -2 23
-15 33 -11 7 -20 25 -19 38 1 75 5 99 16 99 7 0 10 7 7 15 -4 8 -2 15 4 15 6
0 12 -5 14 -10 2 -7 13 -6 30 2 30 14 37 45 13 54 -24 10 -19 37 6 31 20 -5
21 -3 16 30 -5 27 -3 33 5 25 15 -15 39 3 32 23 -4 8 3 15 17 17 27 4 38 28
12 28 -11 0 -14 3 -6 8 8 5 8 12 -2 25 -10 14 -14 15 -18 5 -3 -7 -6 1 -6 18
-1 16 4 35 10 41 17 17 3 43 -22 43 -18 0 -21 5 -17 35 3 25 0 35 -10 35 -8 0
-16 -9 -19 -20 -3 -11 -10 -20 -15 -20 -5 0 -6 5 -3 11 4 6 1 10 -6 8 -30 -4
-39 2 -39 25 0 21 -4 24 -35 22 -39 -2 -40 -1 -23 18 9 10 20 11 37 4 17 -6
27 -5 32 4 5 8 1 15 -11 20 -10 4 -23 16 -29 27 -7 13 -17 17 -31 14 -14 -4
-20 0 -20 11 0 9 -7 19 -15 22 -10 4 -13 14 -9 29 8 32 -3 50 -22 34 -8 -6
-17 -9 -21 -5 -8 8 27 47 37 41 14 -9 20 26 7 45 -13 22 -23 25 -32 10 -3 -5
-13 -6 -21 -3 -8 3 -27 0 -41 -8 -22 -12 -27 -11 -38 4 -7 10 -17 19 -22 20
-4 1 -7 14 -5 30 2 25 0 27 -23 21 -20 -5 -24 -3 -19 10 5 13 0 16 -25 16 -20
0 -31 5 -31 14 0 8 -8 14 -17 14 -34 -1 -73 20 -67 37 4 11 0 15 -16 15 -17 0
-20 4 -15 20 5 16 2 20 -15 20 -12 0 -19 -4 -15 -9 3 -5 1 -12 -4 -16 -6 -3
-17 10 -27 30 -13 28 -22 35 -44 35 -19 0 -33 8 -44 25 -10 15 -26 25 -41 25
-15 0 -29 9 -36 23 -11 20 -11 21 4 9 9 -8 21 -11 27 -7z m-913 -47 c-3 -8 -6
-5 -6 6 -1 11 2 17 5 13 3 -3 4 -12 1 -19z m-734 -15 c-7 -2 -19 -2 -25 0 -7
3 -2 5 12 5 14 0 19 -2 13 -5z m-114 -32 c11 -1 11 -4 1 -16 -7 -8 -18 -15
-25 -15 -20 0 -27 -30 -7 -31 9 0 0 -8 -20 -17 -21 -9 -44 -29 -52 -45 -12
-25 -14 -26 -18 -9 -5 19 -26 22 -63 6 -11 -4 -35 -8 -53 -8 -27 0 -32 -3 -28
-18 3 -15 0 -18 -17 -16 -15 2 -25 -4 -32 -19 -17 -39 -88 -42 -93 -5 -3 18
-8 21 -28 16 -18 -5 -24 -2 -24 10 0 9 8 16 18 16 28 0 34 11 14 27 -16 14
-16 14 1 9 11 -3 17 0 17 9 0 21 -14 18 -36 -7 -10 -12 -13 -18 -5 -13 10 5
12 4 7 -3 -4 -7 -21 -12 -37 -12 -17 0 -37 -7 -45 -15 -24 -23 -81 -20 -89 6
-6 16 -9 18 -21 8 -13 -11 -14 -9 -9 14 6 22 4 25 -14 20 -15 -4 -22 1 -26 19
-3 13 -16 28 -27 33 -12 6 -23 15 -26 22 -2 9 16 12 67 10 47 -1 71 -6 71 -14
0 -6 -9 -15 -20 -18 -11 -3 -20 -13 -20 -20 0 -12 5 -12 28 -2 15 6 32 19 39
27 12 15 28 8 28 -13 0 -7 15 -13 33 -15 20 -2 32 1 32 9 0 7 -10 9 -25 6 -16
-3 -24 0 -22 7 4 12 73 14 150 3 37 -5 47 -3 47 9 0 21 78 22 92 0 4 -6 8 -6
8 -1 0 6 17 10 37 9 23 -1 49 7 70 22 33 22 43 23 122 15z m-779 -18 c-1 -18
-18 -35 -24 -24 -4 6 -4 16 -1 21 7 12 25 13 25 3z m-8 -68 c-4 -21 -1 -25 21
-25 20 0 25 -6 30 -36 9 -52 0 -66 -34 -59 -24 5 -28 4 -23 -9 5 -14 30 -21
57 -17 6 1 11 -31 8 -52 -1 -8 38 -25 54 -23 5 0 8 9 7 19 -4 23 10 22 31 -3
14 -17 14 -20 2 -20 -8 0 -15 -7 -15 -15 0 -13 -7 -15 -33 -10 -24 5 -37 2
-46 -9 -20 -24 -34 -19 -27 9 4 16 2 25 -5 25 -8 0 -8 4 0 14 10 12 8 15 -11
18 -13 2 -23 8 -23 13 0 21 -17 35 -41 35 -31 0 -31 17 1 45 17 17 25 35 26
67 2 47 6 58 18 58 5 0 6 -11 3 -25z m1608 0 c0 -8 -4 -15 -10 -15 -5 0 -10 7
-10 15 0 8 5 15 10 15 6 0 10 -7 10 -15z m-1500 -55 c0 -5 -4 -10 -10 -10 -5
0 -10 5 -10 10 0 6 5 10 10 10 6 0 10 -4 10 -10z m1325 -47 c7 -31 -10 -53
-38 -50 -16 1 -22 -4 -22 -18 -1 -11 -6 -19 -12 -18 -6 1 -9 -6 -6 -17 6 -22
-22 -29 -29 -8 -7 19 -38 1 -38 -22 0 -11 -4 -20 -9 -20 -4 0 -8 31 -8 70 0
59 3 70 18 75 11 4 19 12 19 20 0 15 37 22 87 17 24 -3 33 -10 38 -29z m-1505
11 c0 -8 -4 -12 -10 -9 -5 3 -10 10 -10 16 0 5 5 9 10 9 6 0 10 -7 10 -16z
m1315 -35 c-4 -5 -13 -9 -22 -9 -13 0 -13 3 -3 15 13 15 35 11 25 -6z m-1045
-25 c0 -14 -3 -14 -15 -4 -8 7 -15 14 -15 16 0 2 7 4 15 4 8 0 15 -7 15 -16z
m377 -6 c-3 -8 -6 -5 -6 6 -1 11 2 17 5 13 3 -3 4 -12 1 -19z m-417 2 c0 -5
-7 -11 -15 -11 -8 -1 -21 -2 -27 -3 -26 -4 -32 8 -8 15 37 10 50 10 50 -1z
m-3470 -25 c0 -9 -7 -29 -15 -46 -15 -28 -17 -28 -32 -13 -16 15 -15 18 5 34
12 10 22 23 22 29 0 6 5 11 10 11 6 0 10 -7 10 -15z m3205 -15 c3 -5 1 -10 -4
-10 -6 0 -11 5 -11 10 0 6 2 10 4 10 3 0 8 -4 11 -10z m3155 -15 c0 -14 -4
-25 -9 -25 -5 0 -11 11 -13 25 -4 17 -1 25 8 25 8 0 14 -11 14 -25z m-3195 5
c3 -5 -1 -10 -10 -10 -9 0 -13 5 -10 10 3 6 8 10 10 10 2 0 7 -4 10 -10z m110
-10 c3 -5 1 -10 -4 -10 -6 0 -11 5 -11 10 0 6 2 10 4 10 3 0 8 -4 11 -10z
m291 -7 c-1 -13 8 -19 27 -21 15 -2 25 -8 21 -13 -3 -5 -10 -7 -15 -4 -11 7
-11 3 -3 -19 3 -9 14 -16 24 -16 11 0 22 -5 25 -10 4 -6 11 -7 17 -4 7 5 5 11
-6 20 -14 10 -15 17 -8 31 10 17 11 17 18 0 5 -13 9 -15 14 -7 4 7 13 9 20 5
8 -5 7 -12 -5 -25 -9 -10 -14 -23 -11 -29 8 -13 -11 -51 -24 -51 -6 0 -9 3 -9
8 3 17 -1 32 -8 30 -18 -5 -52 15 -58 33 -6 18 -21 23 -55 20 -25 -3 -60 -23
-54 -33 9 -14 -31 -9 -52 8 -19 15 -18 15 4 11 15 -4 28 2 40 17 9 13 23 21
30 18 7 -2 12 0 11 5 -1 4 -1 15 1 23 1 11 4 9 10 -5 9 -19 9 -19 16 3 8 26
32 30 30 5z m-356 -21 c0 -4 -9 -8 -19 -8 -11 0 -17 4 -15 8 3 4 12 8 20 8 8
0 14 -4 14 -8z m30 -28 c0 -8 -5 -12 -10 -9 -6 4 -8 11 -5 16 9 14 15 11 15
-7z m334 -41 c4 -9 0 -23 -9 -33 -8 -9 -15 -22 -15 -28 0 -20 -58 -14 -70 7
-14 27 -13 41 5 41 8 0 15 -7 15 -15 0 -8 8 -15 18 -14 10 0 12 3 5 6 -22 8
-15 43 8 43 11 0 17 4 14 10 -3 5 0 7 9 4 8 -3 17 -13 20 -21z m-161 -47 c3
-8 -2 -16 -14 -19 -21 -6 -22 -5 -13 17 8 20 20 21 27 2z m-23 -51 c-7 -9 -15
-13 -17 -11 -7 7 7 26 19 26 6 0 6 -6 -2 -15z m3165 -105 c-4 -12 -9 -19 -12
-17 -3 3 -2 15 2 27 4 12 9 19 12 17 3 -3 2 -15 -2 -27z m25 -30 c0 -5 -5 -10
-11 -10 -5 0 -7 5 -4 10 3 6 8 10 11 10 2 0 4 -4 4 -10z m13 -163 c3 -8 1 -20
-4 -28 -6 -10 -9 -7 -9 14 0 29 5 35 13 14z m153 -188 c3 -6 -1 -18 -10 -27
-15 -15 -16 -14 -16 11 0 27 13 36 26 16z m1344 -19 c0 -5 -5 -10 -11 -10 -5
0 -7 5 -4 10 3 6 8 10 11 10 2 0 4 -4 4 -10z m-7615 -49 c8 -19 1 -23 -29 -15
-21 5 -26 12 -26 36 l0 29 25 -18 c13 -10 27 -24 30 -32z m6361 7 c-1 -15 -7
-33 -14 -40 -6 -6 -12 -28 -12 -49 0 -21 -8 -47 -20 -62 -11 -14 -20 -36 -20
-49 0 -12 -4 -30 -10 -38 -8 -13 -9 -13 -14 0 -13 44 -13 61 5 81 10 12 16 25
14 30 -3 4 -1 10 3 13 5 3 6 26 2 51 -5 34 -3 50 6 60 8 7 14 18 14 24 0 6 11
10 24 9 19 -2 23 -7 22 -30z m1695 -20 c10 -13 18 -18 19 -12 0 13 48 25 55
14 2 -4 17 -5 33 -2 36 5 41 -2 52 -75 11 -75 1 -139 -23 -137 -20 2 -22 -17
-4 -35 10 -10 9 -14 -5 -22 -10 -6 -18 -18 -18 -27 0 -10 -7 -27 -15 -39 -12
-18 -24 -21 -74 -20 -35 1 -65 -4 -74 -11 -18 -16 -25 -8 -48 58 -14 39 -20
45 -45 46 -16 0 -38 5 -49 11 -11 6 -30 9 -41 7 -20 -3 -21 -1 -10 21 6 13 18
26 27 28 13 3 16 16 14 58 -3 84 -4 91 -14 84 -5 -3 -12 -1 -16 5 -3 5 1 10 9
10 19 0 21 16 4 23 -10 4 -10 6 -1 6 6 1 14 -3 18 -8 8 -15 118 0 131 17 6 8
16 12 22 8 6 -3 13 -2 17 4 9 15 15 13 36 -12z m-1795 -8 c5 1 10 -4 13 -11 2
-8 -2 -10 -13 -6 -10 4 -20 7 -22 7 -2 0 -4 8 -4 18 0 13 2 14 9 4 4 -8 12
-13 17 -12z m1516 -32 c-17 -17 -42 -19 -35 -2 3 8 15 14 26 14 16 0 18 -3 9
-12z m-1532 -64 c0 -8 -4 -12 -10 -9 -5 3 -10 10 -10 16 0 5 5 9 10 9 6 0 10
-7 10 -16z m-1094 -105 c-2 -36 -10 -67 -20 -78 -9 -10 -16 -23 -16 -31 0 -9
-10 -11 -36 -7 -34 6 -36 4 -55 -36 -10 -23 -25 -50 -33 -60 -17 -21 -80 -34
-90 -18 -12 19 -42 12 -55 -12 -20 -37 -48 -48 -140 -54 -73 -5 -92 -3 -115
12 -25 17 -27 17 -46 0 -18 -16 -31 -17 -127 -9 -104 9 -107 10 -124 39 -39
66 -12 156 59 192 36 19 95 16 123 -6 14 -10 40 -27 59 -38 l34 -19 32 36 c42
46 124 90 171 90 40 0 73 -23 73 -52 0 -32 29 -19 66 31 38 50 69 67 105 56
13 -4 19 -16 19 -36 0 -16 3 -29 6 -29 9 0 54 44 54 53 0 13 44 46 53 40 4 -2
5 -31 3 -64z m2619 22 c6 -26 4 -32 -6 -29 -8 3 -15 22 -17 44 -4 46 12 36 23
-15z m-3825 -77 c0 -7 6 -17 13 -21 6 -4 18 -18 25 -31 11 -20 10 -26 -10 -47
-24 -25 -48 -33 -48 -15 0 6 -6 10 -14 10 -26 0 -56 50 -56 95 0 23 3 44 6 47
9 10 84 -24 84 -38z m214 -24 c27 0 71 -58 79 -106 5 -27 3 -32 -16 -36 -39
-7 -117 3 -117 16 0 6 -9 17 -20 24 -30 18 -28 85 3 100 12 6 28 9 35 6 8 -2
24 -4 36 -4z m2108 -22 c-7 -7 -12 -8 -12 -2 0 14 12 26 19 19 2 -3 -1 -11 -7
-17z m-1015 -139 c16 -42 6 -67 -33 -81 -22 -8 -34 -18 -32 -28 4 -22 -11 -40
-27 -33 -11 4 -15 -3 -15 -26 0 -34 -7 -39 -24 -16 -10 13 -14 13 -40 0 -15
-8 -47 -17 -70 -20 -110 -13 -136 -18 -136 -26 0 -5 -6 -9 -14 -9 -8 0 -16 -6
-19 -12 -2 -8 -8 -9 -13 -4 -5 5 -4 11 4 13 30 11 7 18 -54 16 -44 -2 -73 -8
-84 -18 -16 -14 -29 -14 -146 0 -235 29 -250 28 -270 -6 -7 -13 -14 -15 -34
-6 -14 5 -34 9 -46 8 -11 -1 -32 7 -46 19 -14 11 -31 20 -36 20 -5 0 -12 7
-16 15 -3 8 -12 15 -21 15 -8 0 -15 9 -15 20 0 10 -8 24 -17 29 -16 9 -16 10
-2 11 10 0 19 12 23 30 7 37 26 40 26 4 0 -26 1 -27 46 -20 39 5 47 3 51 -12
3 -13 12 -17 31 -16 15 2 59 6 98 10 44 4 74 3 77 -4 4 -5 23 -6 47 -2 65 12
150 -6 150 -31 0 -18 87 -3 117 21 14 11 38 20 54 20 15 0 31 5 34 10 4 6 19
9 34 8 15 -1 44 8 64 19 24 15 62 24 119 29 66 5 90 12 116 32 17 13 32 30 32
37 0 8 14 12 38 12 33 0 40 -4 49 -28z m101 -107 c2 -7 -3 -12 -12 -12 -9 0
-16 7 -16 16 0 17 22 14 28 -4z m798 -19 c-10 -10 -19 5 -10 18 6 11 8 11 12
0 2 -7 1 -15 -2 -18z m-615 -67 c1 -37 9 -70 21 -94 9 -18 9 -25 0 -31 -7 -4
-10 -15 -6 -24 3 -10 1 -17 -5 -17 -11 0 -5 -50 9 -80 9 -19 2 -40 -15 -40 -9
0 -11 -13 -9 -42 3 -24 -1 -53 -7 -65 -7 -12 -8 -30 -4 -40 8 -17 10 -24 14
-48 1 -5 6 -3 11 5 5 8 7 22 5 30 -3 8 4 21 14 27 16 10 20 9 24 -13 3 -15 0
-24 -8 -24 -14 0 -26 -83 -13 -88 14 -6 9 -32 -7 -32 -8 0 -15 8 -15 17 0 16
-1 16 -16 1 -13 -12 -14 -20 -5 -37 9 -15 8 -25 0 -39 -10 -15 -9 -26 5 -52
20 -42 20 -43 -5 -37 -12 3 -46 2 -77 -3 -53 -9 -77 -24 -66 -42 3 -4 -6 -12
-20 -18 -32 -12 -33 -18 -1 -30 14 -5 25 -14 25 -19 0 -16 -21 -24 -33 -12
-19 19 -34 12 -43 -21 -11 -37 -28 -44 -70 -27 -16 7 -33 13 -37 13 -4 1 -12
7 -17 15 -9 16 -110 25 -110 10 0 -5 -7 -9 -15 -9 -8 0 -12 -6 -9 -14 4 -10
-5 -13 -35 -13 -27 0 -38 3 -34 11 4 6 8 17 10 25 1 8 8 18 15 22 10 6 10 13
2 26 -9 13 -22 17 -53 15 -33 -2 -46 3 -71 26 -16 16 -30 36 -30 44 0 9 -7 21
-15 28 -13 11 -18 10 -29 -5 -7 -10 -18 -15 -23 -12 -15 9 -22 56 -11 63 6 4
6 10 -1 17 -19 19 -12 29 15 23 14 -4 32 -2 40 4 7 7 34 12 60 12 45 1 46 2
40 28 -6 34 1 42 26 29 10 -6 28 -7 39 -4 21 7 64 47 70 64 2 6 24 13 49 15
25 3 45 6 45 7 0 1 17 3 38 4 20 1 39 4 41 6 2 2 7 22 10 43 4 22 11 45 17 53
6 7 8 13 3 13 -4 0 -2 6 4 12 10 10 15 10 22 -2 5 -8 12 -11 17 -7 4 5 2 11
-4 15 -6 4 -9 19 -6 34 3 15 9 26 13 23 4 -2 17 6 29 19 15 15 19 26 12 31 -6
3 -11 16 -10 28 l0 22 9 -22 c12 -28 40 -30 40 -3 0 11 -4 20 -10 20 -15 0
-12 36 4 50 8 6 12 18 9 27 -3 8 0 19 8 24 11 6 11 11 1 21 -16 16 -15 28 1
28 7 0 18 9 25 20 16 27 42 26 42 -2 0 -17 3 -19 12 -10 10 10 10 17 0 32 -21
34 -13 42 18 18 17 -12 30 -31 31 -42z m-243 30 c-7 -8 -15 -12 -17 -11 -5 6
10 25 20 25 5 0 4 -6 -3 -14z m279 8 c-3 -3 -12 -4 -19 -1 -8 3 -5 6 6 6 11 1
17 -2 13 -5z m-202 -45 c11 -16 1 -19 -13 -3 -7 8 -8 14 -3 14 5 0 13 -5 16
-11z m665 -123 c0 -3 -4 -8 -10 -11 -5 -3 -10 -1 -10 4 0 6 5 11 10 11 6 0 10
-2 10 -4z m-715 -66 c-3 -5 -12 -10 -18 -10 -7 0 -6 4 3 10 19 12 23 12 15 0z
m30 -30 c-3 -5 -12 -10 -18 -10 -7 0 -6 4 3 10 19 12 23 12 15 0z m207 -182
c-7 -7 -12 -8 -12 -2 0 14 12 26 19 19 2 -3 -1 -11 -7 -17z m-1796 -75 c7 -10
14 -26 14 -35 0 -10 7 -18 15 -18 18 0 18 5 5 30 -8 15 -6 21 10 30 17 9 20 8
20 -12 0 -17 3 -19 9 -9 11 17 41 7 41 -13 0 -15 34 -31 48 -22 5 3 20 -5 33
-18 41 -38 68 -50 75 -32 5 14 8 13 22 -1 10 -9 17 -20 17 -24 0 -19 16 -19
42 -1 22 15 33 18 47 10 12 -7 21 -7 29 1 14 14 53 14 79 0 51 -27 76 -28 103
-3 22 20 29 22 45 11 11 -6 20 -17 20 -24 0 -13 34 -35 42 -27 3 3 34 7 68 9
l62 5 -6 -31 c-3 -17 -6 -38 -6 -46 0 -9 -6 -13 -14 -10 -19 7 -46 -28 -39
-52 3 -14 0 -23 -11 -27 -9 -3 -16 -15 -16 -25 0 -21 -15 -25 -25 -9 -5 8 -11
7 -21 -1 -12 -10 -19 -8 -34 8 -17 19 -24 20 -65 11 -34 -7 -50 -7 -60 2 -12
10 -15 9 -15 -9 0 -39 -28 -80 -51 -76 -11 2 -31 0 -45 -6 -16 -5 -32 -6 -42
0 -10 6 -24 5 -36 -1 -15 -8 -23 -5 -43 21 -14 17 -30 30 -36 29 -29 -5 -88
14 -98 33 -7 14 -19 20 -37 19 -44 -3 -48 -1 -60 26 -9 19 -17 24 -31 19 -25
-8 -45 26 -39 65 3 22 0 30 -15 34 -15 4 -17 8 -7 25 6 12 7 21 1 21 -18 0
-23 53 -7 66 20 14 20 24 1 24 -8 0 -15 4 -15 9 0 5 -3 16 -6 25 -8 22 15 20
32 -1z m1834 -32 c0 -6 -4 -13 -10 -16 -5 -3 -10 1 -10 9 0 9 5 16 10 16 6 0
10 -4 10 -9z m-1442 -39 c8 -6 1 -12 -23 -19 -27 -9 -35 -8 -35 1 0 25 31 35
58 18z m497 -184 c3 -3 -1 -10 -9 -17 -10 -9 -20 -9 -41 1 -23 10 -24 13 -9
18 20 7 51 6 59 -2z m-31 -72 c-3 -8 -15 -11 -30 -8 -39 7 -39 22 0 22 26 0
34 -4 30 -14z m256 5 c0 -5 10 -7 23 -4 l22 5 -22 -20 c-13 -11 -23 -27 -23
-36 0 -9 -7 -16 -15 -16 -8 0 -15 7 -15 15 0 8 5 15 12 15 9 0 9 3 0 12 -17
17 -15 38 3 38 8 0 15 -4 15 -9z m-330 -56 c0 -8 -2 -15 -4 -15 -2 0 -6 7 -10
15 -3 8 -1 15 4 15 6 0 10 -7 10 -15z m65 -5 c3 -5 1 -10 -4 -10 -6 0 -11 5
-11 10 0 6 2 10 4 10 3 0 8 -4 11 -10z m-95 -15 c0 -8 -2 -15 -4 -15 -2 0 -6
7 -10 15 -3 8 -1 15 4 15 6 0 10 -7 10 -15z m1632 -282 c29 -28 35 -43 18 -43
-13 0 -60 49 -60 61 0 15 13 10 42 -18z m-3764 -110 c2 -7 -4 -13 -15 -13 -10
0 -31 -7 -47 -15 -15 -8 -35 -15 -42 -15 -8 0 -14 -3 -14 -7 0 -5 -19 -17 -41
-27 -22 -11 -52 -34 -66 -50 -29 -35 -63 -52 -63 -33 0 7 12 24 28 39 15 15
38 38 52 52 17 18 35 26 58 26 22 0 40 8 55 24 32 34 86 45 95 19z m3036 -106
c-4 -11 -6 -41 -6 -65 2 -55 -13 -45 -27 17 -11 50 0 84 24 74 11 -3 13 -12 9
-26z m-34 -114 c0 -20 -3 -24 -11 -16 -7 7 -9 19 -6 27 10 24 17 19 17 -11z
m496 -269 c-2 -6 0 -16 4 -20 13 -13 1 -51 -17 -58 -20 -8 -33 1 -33 25 0 19
1 19 16 4 22 -22 32 -10 11 13 -23 25 -21 48 3 48 12 0 19 -5 16 -12z m-41
-114 c-3 -5 -11 -10 -16 -10 -6 0 -7 5 -4 10 3 6 11 10 16 10 6 0 7 -4 4 -10z
m1773 -612 c-6 -18 -28 -21 -28 -4 0 9 7 16 16 16 9 0 14 -5 12 -12z m119
-214 c-3 -3 -12 -4 -19 -1 -8 3 -5 6 6 6 11 1 17 -2 13 -5z m118 -134 c3 -5
-1 -10 -10 -10 -9 0 -13 5 -10 10 3 6 8 10 10 10 2 0 7 -4 10 -10z m295 -80
c0 -5 -4 -10 -10 -10 -5 0 -10 5 -10 10 0 6 5 10 10 10 6 0 10 -4 10 -10z m92
-155 c0 -5 -5 -11 -11 -13 -6 -2 -11 4 -11 13 0 9 5 15 11 13 6 -2 11 -8 11
-13z"/>
<path d="M2150 7953 c8 -3 18 -11 22 -17 9 -14 22 -1 13 13 -3 6 -16 11 -28
10 -15 0 -17 -2 -7 -6z"/>
<path d="M2855 7420 c-3 -5 -1 -10 4 -10 6 0 11 5 11 10 0 6 -2 10 -4 10 -3 0
-8 -4 -11 -10z"/>
<path d="M280 7510 c0 -5 5 -10 10 -10 6 0 10 5 10 10 0 6 -4 10 -10 10 -5 0
-10 -4 -10 -10z"/>
<path d="M5524 4847 c-3 -9 -13 -13 -25 -10 -29 8 -23 -16 7 -27 35 -14 44
-12 38 4 -3 9 2 16 13 18 16 3 16 5 -5 16 -18 11 -23 10 -28 -1z"/>
<path d="M5622 4829 c2 -7 10 -15 17 -17 8 -3 12 1 9 9 -2 7 -10 15 -17 17 -8
3 -12 -1 -9 -9z"/>
<path d="M5805 4420 c3 -5 13 -10 21 -10 8 0 12 5 9 10 -3 6 -13 10 -21 10 -8
0 -12 -4 -9 -10z"/>
<path d="M6762 4667 c-8 -9 -6 -16 8 -25 19 -12 22 -10 33 21 8 21 -25 24 -41
4z"/>
<path d="M6735 4628 c-8 -21 0 -48 15 -48 12 0 12 17 0 45 -7 18 -8 19 -15 3z"/>
<path d="M6685 4585 c-4 -28 -2 -51 4 -59 6 -7 8 -16 4 -19 -3 -4 1 -7 10 -7
8 0 19 -9 22 -20 7 -22 20 -26 30 -9 4 5 0 18 -9 28 -11 12 -13 20 -5 28 15
15 3 33 -22 33 -22 0 -23 4 -9 30 7 13 6 21 -4 29 -11 9 -15 3 -21 -34z"/>
<path d="M6398 4613 c7 -3 16 -2 19 1 4 3 -2 6 -13 5 -11 0 -14 -3 -6 -6z"/>
<path d="M6640 4526 c0 -2 6 -9 13 -15 10 -8 14 -7 14 4 0 8 -6 15 -14 15 -7
0 -13 -2 -13 -4z"/>
<path d="M6596 4511 c-3 -5 1 -11 9 -15 9 -3 15 0 15 9 0 16 -16 20 -24 6z"/>
<path d="M6545 4467 c-4 -10 -5 -21 -1 -24 10 -10 18 4 13 24 -4 17 -4 17 -12
0z"/>
<path d="M6676 4404 c-10 -7 -23 -11 -27 -8 -5 3 -9 -1 -9 -9 0 -17 54 -42 69
-32 15 9 14 40 -2 53 -8 7 -18 6 -31 -4z"/>
<path d="M6732 4363 c-24 -30 -29 -48 -9 -39 6 3 19 9 28 12 10 3 16 16 15 30
-1 31 -7 30 -34 -3z"/>
<path d="M6780 4304 c0 -15 26 -19 34 -5 3 5 -3 11 -14 14 -13 3 -20 0 -20 -9z"/>
<path d="M6780 4241 c0 -29 15 -33 18 -5 1 13 -3 24 -8 24 -6 0 -10 -9 -10
-19z"/>
<path d="M6789 4198 c-13 -54 -2 -67 32 -38 13 11 21 20 17 21 -5 1 -11 2 -15
3 -5 1 -14 5 -20 9 -7 5 -13 7 -14 5z"/>
<path d="M6826 3997 c3 -10 9 -15 12 -12 3 3 0 11 -7 18 -10 9 -11 8 -5 -6z"/>
<path d="M6759 3969 c-7 -4 1 -13 21 -23 34 -16 50 -14 50 8 0 15 -53 26 -71
15z"/>
<path d="M6635 3781 c-7 -24 4 -51 21 -51 17 0 18 17 2 23 -10 4 -10 8 1 15 7
5 10 15 7 21 -11 17 -24 13 -31 -8z"/>
<path d="M4010 4735 c-10 -12 -10 -15 3 -15 19 0 31 16 18 24 -5 3 -14 -1 -21
-9z"/>
<path d="M3810 4694 c0 -14 7 -33 16 -42 15 -14 15 -17 -2 -29 -13 -10 -14
-13 -3 -13 24 1 48 25 46 48 -1 15 -7 20 -22 19 -15 -1 -20 4 -19 21 0 12 -3
22 -8 22 -4 0 -8 -12 -8 -26z"/>
<path d="M5136 3325 c4 -8 8 -15 10 -15 2 0 4 7 4 15 0 8 -4 15 -10 15 -5 0
-7 -7 -4 -15z"/>
<path d="M6053 3065 c-3 -9 -3 -18 -1 -21 3 -3 8 4 11 16 6 23 -1 27 -10 5z"/>
<path d="M6040 3020 c0 -5 7 -7 15 -4 8 4 15 8 15 10 0 2 -7 4 -15 4 -8 0 -15
-4 -15 -10z"/>
<path d="M5612 2270 c0 -14 2 -19 5 -12 2 6 2 18 0 25 -3 6 -5 1 -5 -13z"/>
<path d="M4320 2545 c0 -8 7 -15 15 -15 8 0 15 7 15 15 0 8 -7 15 -15 15 -8 0
-15 -7 -15 -15z"/>
<path d="M4360 2510 c0 -13 5 -18 15 -14 8 4 15 12 15 20 0 8 -7 14 -15 14 -8
0 -15 -9 -15 -20z"/>
<path d="M4700 2470 c0 -5 4 -10 9 -10 6 0 13 5 16 10 3 6 -1 10 -9 10 -9 0
-16 -4 -16 -10z"/>
<path d="M10370 8830 c-41 -6 -39 -7 28 -8 42 -1 72 2 72 8 0 11 -30 11 -100
0z"/>
<path d="M5298 8823 c7 -3 16 -2 19 1 4 3 -2 6 -13 5 -11 0 -14 -3 -6 -6z"/>
<path d="M7126 8805 c-3 -9 -6 -19 -6 -21 0 -2 36 -4 79 -4 44 0 83 -4 86 -10
8 -13 152 -13 160 0 9 14 196 6 224 -9 19 -11 21 -9 21 13 0 33 -26 40 -117
32 -179 -15 -244 -17 -323 -8 -47 5 -92 13 -101 17 -10 4 -19 0 -23 -10z"/>
<path d="M6892 8783 c2 -5 10 -20 17 -34 22 -44 93 -64 77 -22 -4 9 -1 22 5
29 9 11 7 15 -6 20 -9 4 -20 1 -25 -5 -5 -10 -9 -9 -13 3 -4 9 -18 16 -33 16
-14 0 -24 -3 -22 -7z"/>
<path d="M7780 8761 c0 -12 5 -21 10 -21 6 0 10 6 10 14 0 8 -4 18 -10 21 -5
3 -10 -3 -10 -14z"/>
<path d="M4820 8764 c-14 -3 -44 -7 -68 -10 -25 -3 -40 -9 -36 -16 4 -6 21 -7
43 -3 42 8 111 8 201 1 36 -3 153 -8 260 -10 231 -6 346 -14 380 -27 14 -5 79
-13 145 -18 133 -11 266 -33 337 -56 26 -8 55 -15 66 -15 10 0 56 -13 102 -30
85 -31 126 -38 115 -20 -24 38 -429 162 -590 181 -44 5 -111 13 -150 19 -65 9
-749 12 -805 4z"/>
<path d="M4563 8723 c15 -2 37 -2 50 0 12 2 0 4 -28 4 -27 0 -38 -2 -22 -4z"/>
<path d="M7785 8720 c3 -5 10 -10 16 -10 5 0 9 5 9 10 0 6 -7 10 -16 10 -8 0
-12 -4 -9 -10z"/>
<path d="M1040 8690 c-12 -7 -12 -12 -2 -22 6 -6 12 -23 12 -37 0 -27 15 -59
23 -51 3 3 7 30 8 60 4 57 -8 72 -41 50z"/>
<path d="M1220 8680 c0 -5 5 -10 11 -10 5 0 7 5 4 10 -3 6 -8 10 -11 10 -2 0
-4 -4 -4 -10z"/>
<path d="M4025 8680 c-3 -5 -2 -10 4 -10 5 0 13 5 16 10 3 6 2 10 -4 10 -5 0
-13 -4 -16 -10z"/>
<path d="M6645 8634 c4 -27 9 -60 11 -74 5 -36 21 -101 27 -107 5 -5 15 40 16
67 0 8 3 29 6 47 6 33 -11 56 -21 29 -3 -9 -10 -13 -16 -10 -5 3 -5 11 2 19
18 21 8 69 -14 73 -17 4 -18 0 -11 -44z"/>
<path d="M1956 8653 c-4 -9 -2 -21 4 -27 7 -7 10 -2 10 17 0 31 -5 34 -14 10z"/>
<path d="M4153 8649 c-18 -5 -33 -14 -33 -19 0 -16 33 -11 65 10 32 21 21 24
-32 9z"/>
<path d="M245 8620 c-8 -13 3 -30 20 -30 8 0 11 7 8 20 -6 22 -18 26 -28 10z"/>
<path d="M438 8618 c17 -8 26 -8 34 0 9 9 4 12 -22 11 -33 0 -34 -1 -12 -11z"/>
<path d="M861 8612 c-8 -14 -6 -22 10 -35 27 -24 48 -22 42 3 -3 11 -3 20 1
20 3 0 21 -9 41 -20 45 -25 45 -25 45 6 0 18 -4 25 -14 21 -7 -3 -17 -2 -22 3
-5 4 -28 11 -51 15 -35 5 -43 3 -52 -13z"/>
<path d="M3853 8623 c9 -2 23 -2 30 0 6 3 -1 5 -18 5 -16 0 -22 -2 -12 -5z"/>
<path d="M3980 8600 c-39 -16 -41 -19 -18 -19 30 -1 78 18 78 31 0 11 -7 9
-60 -12z"/>
<path d="M3740 8601 c0 -10 30 -24 37 -17 3 2 -5 9 -16 16 -12 6 -21 7 -21 1z"/>
<path d="M1930 8550 c0 -5 7 -7 15 -4 8 4 15 8 15 10 0 2 -7 4 -15 4 -8 0 -15
-4 -15 -10z"/>
<path d="M2850 8544 c0 -9 5 -14 12 -12 18 6 21 28 4 28 -9 0 -16 -7 -16 -16z"/>
<path d="M2972 8520 c0 -14 2 -19 5 -12 2 6 2 18 0 25 -3 6 -5 1 -5 -13z"/>
<path d="M3788 8519 c-29 -17 -20 -28 12 -16 30 11 41 27 18 27 -7 0 -21 -5
-30 -11z"/>
<path d="M32 8509 c2 -7 10 -15 17 -17 8 -3 12 1 9 9 -2 7 -10 15 -17 17 -8 3
-12 -1 -9 -9z"/>
<path d="M955 8500 c-3 -5 -1 -10 4 -10 6 0 11 5 11 10 0 6 -2 10 -4 10 -3 0
-8 -4 -11 -10z"/>
<path d="M4956 8501 c-3 -5 -45 -14 -93 -21 -49 -7 -98 -16 -111 -21 -15 -6
-30 -4 -43 4 -14 8 -22 9 -27 1 -4 -6 -32 -10 -62 -10 -30 1 -66 -4 -79 -11
-13 -6 -37 -9 -52 -6 -16 3 -41 -2 -61 -12 -21 -11 -77 -20 -158 -27 -81 -6
-139 -16 -165 -28 l-40 -18 55 -24 c46 -21 67 -24 125 -20 39 2 102 6 140 7
39 1 83 8 98 14 15 6 38 11 50 10 12 0 65 5 117 11 52 6 112 9 133 6 27 -5 42
-2 53 9 19 19 203 22 222 3 9 -9 17 -9 34 -1 13 7 40 14 61 18 21 3 35 10 32
16 -4 5 -10 7 -14 5 -4 -3 -32 2 -62 10 -95 27 -128 32 -132 20 -2 -6 -7 -8
-11 -5 -4 4 0 14 9 22 19 20 20 57 1 57 -8 0 -17 -4 -20 -9z"/>
<path d="M3196 8475 c-17 -26 -17 -27 6 -43 12 -9 33 -27 44 -39 29 -31 65
-29 97 5 30 31 26 45 -9 36 -20 -5 -24 -2 -24 19 0 21 -6 26 -36 31 -19 4 -41
9 -48 12 -7 3 -21 -7 -30 -21z"/>
<path d="M450 8471 c0 -6 5 -13 10 -16 6 -3 10 1 10 9 0 9 -4 16 -10 16 -5 0
-10 -4 -10 -9z"/>
<path d="M3563 8463 c-23 -9 -13 -23 16 -23 37 0 62 10 55 21 -5 9 -50 11 -71
2z"/>
<path d="M2910 8441 c0 -5 -3 -16 -6 -25 -4 -10 -1 -16 9 -16 15 0 27 -29 27
-69 0 -21 -3 -23 -36 -17 -43 9 -94 -11 -94 -36 0 -10 -5 -18 -10 -18 -6 0
-22 -7 -36 -16 -24 -16 -24 -17 -7 -34 17 -17 26 -17 68 0 26 10 102 30 140
37 17 3 35 9 41 14 6 5 20 2 32 -7 20 -14 22 -23 22 -124 0 -60 4 -111 9 -115
6 -3 15 21 22 54 8 45 19 67 43 90 17 16 42 41 54 55 13 14 46 34 73 43 64 23
98 48 83 63 -18 19 -114 -25 -158 -73 -26 -28 -41 -37 -44 -29 -2 8 9 27 24
44 27 27 28 30 12 42 -10 7 -18 18 -18 24 0 6 -14 19 -30 27 -17 9 -36 27 -42
39 -11 24 -83 64 -95 53 -3 -4 2 -36 11 -71 21 -74 16 -108 -7 -56 -9 19 -24
44 -35 55 -10 12 -22 33 -26 48 -6 25 -26 39 -26 18z m205 -121 c3 -5 2 -10
-4 -10 -5 0 -13 5 -16 10 -3 6 -2 10 4 10 5 0 13 -4 16 -10z"/>
<path d="M5450 8434 c0 -8 5 -12 10 -9 6 3 10 10 10 16 0 5 -4 9 -10 9 -5 0
-10 -7 -10 -16z"/>
<path d="M3500 8430 c0 -5 5 -10 10 -10 6 0 10 5 10 10 0 6 -4 10 -10 10 -5 0
-10 -4 -10 -10z"/>
<path d="M5304 8428 c-3 -5 -1 -15 5 -21 8 -8 15 -7 27 5 14 14 14 16 -5 21
-12 3 -24 1 -27 -5z"/>
<path d="M6755 8430 c-7 -11 34 -55 42 -46 8 8 -14 56 -26 56 -5 0 -12 -4 -16
-10z"/>
<path d="M440 8416 c0 -18 16 -29 30 -21 13 8 1 35 -16 35 -8 0 -14 -6 -14
-14z"/>
<path d="M5260 8420 c0 -5 4 -10 9 -10 6 0 13 5 16 10 3 6 -1 10 -9 10 -9 0
-16 -4 -16 -10z"/>
<path d="M1000 8409 c0 -5 5 -7 10 -4 6 3 10 8 10 11 0 2 -4 4 -10 4 -5 0 -10
-5 -10 -11z"/>
<path d="M3433 8403 c-44 -15 -54 -29 -29 -39 18 -7 72 21 79 41 7 17 6 17
-50 -2z"/>
<path d="M3912 8407 c-8 -10 -6 -13 9 -14 10 -1 19 5 19 13 0 17 -14 18 -28 1z"/>
<path d="M3950 8405 c0 -19 11 -19 36 0 18 14 18 14 -8 15 -18 0 -28 -5 -28
-15z"/>
<path d="M1865 8390 c-3 -5 -1 -10 4 -10 6 0 11 5 11 10 0 6 -2 10 -4 10 -3 0
-8 -4 -11 -10z"/>
<path d="M585 8379 c-11 -16 -1 -19 13 -3 7 8 8 14 3 14 -5 0 -13 -5 -16 -11z"/>
<path d="M1788 8369 c-22 -12 -23 -25 -4 -32 9 -4 16 3 19 19 2 13 4 24 3 24
0 0 -9 -5 -18 -11z"/>
<path d="M6710 8362 c0 -12 44 -52 57 -52 6 0 28 -17 50 -37 66 -63 90 -83
100 -83 8 0 39 -32 83 -84 12 -16 11 -20 -10 -36 -19 -14 -24 -29 -26 -69 -2
-47 -1 -51 20 -51 12 0 26 4 32 9 5 4 23 4 40 0 32 -9 44 -29 44 -79 0 -24 55
-80 79 -80 13 0 15 -37 2 -44 -5 -3 -7 -15 -4 -26 3 -11 0 -33 -6 -50 -9 -28
-8 -32 16 -41 39 -15 50 2 57 94 4 45 9 112 13 149 4 57 2 72 -15 100 -13 20
-18 39 -13 47 8 12 5 130 -3 139 -3 2 -9 1 -15 -3 -14 -8 -14 -45 -1 -45 14 0
12 -28 -2 -33 -10 -3 -10 -7 0 -20 14 -17 8 -57 -9 -57 -5 0 -9 -9 -9 -21 0
-11 -4 -17 -10 -14 -5 3 -10 19 -10 36 0 18 -5 29 -14 29 -8 0 -27 13 -43 28
-39 40 -141 122 -151 122 -4 0 -20 12 -34 28 -38 38 -68 63 -106 90 -49 33
-112 64 -112 54z"/>
<path d="M1730 8331 c-8 -16 -6 -24 11 -40 12 -11 26 -18 31 -15 14 9 9 34 -7
34 -8 0 -12 6 -9 14 9 23 -14 28 -26 7z"/>
<path d="M2371 8344 c-1 -7 -10 -14 -21 -17 -23 -6 -27 -37 -5 -37 17 0 38 36
31 53 -3 8 -5 8 -5 1z"/>
<path d="M6138 8315 c-8 -38 3 -62 19 -43 8 9 8 21 -1 43 l-13 30 -5 -30z"/>
<path d="M1850 8320 c0 -5 7 -10 15 -10 8 0 15 5 15 10 0 6 -7 10 -15 10 -8 0
-15 -4 -15 -10z"/>
<path d="M2068 8283 c7 -3 16 -2 19 1 4 3 -2 6 -13 5 -11 0 -14 -3 -6 -6z"/>
<path d="M2350 8241 c0 -6 5 -13 11 -17 6 -3 8 -17 4 -31 -4 -18 0 -29 17 -42
12 -10 29 -16 36 -13 11 4 7 9 -11 19 -22 11 -24 17 -17 41 6 23 4 31 -11 40
-23 14 -29 15 -29 3z"/>
<path d="M2470 8192 c0 -15 -5 -20 -15 -16 -11 5 -15 -1 -14 -22 1 -18 3 -22
6 -11 2 9 8 16 11 13 4 -2 15 4 25 14 16 15 16 19 2 30 -13 10 -15 9 -15 -8z"/>
<path d="M6339 8189 c-6 -3 2 -8 18 -11 33 -4 53 0 53 11 0 9 -56 10 -71 0z"/>
<path d="M6462 8171 c-10 -28 -9 -29 29 -35 22 -3 47 -15 56 -26 10 -11 23
-20 30 -20 7 0 13 -4 13 -9 0 -5 12 -14 28 -19 22 -8 23 -11 7 -12 -33 -2 -79
-9 -100 -14 -11 -3 -41 1 -65 8 -39 11 -48 11 -69 -3 -13 -8 -33 -17 -44 -18
-24 -4 -33 -11 -24 -19 9 -9 126 -33 162 -34 30 0 228 -65 291 -95 17 -8 37
-21 44 -30 7 -8 16 -15 21 -15 5 0 37 -27 71 -60 34 -34 87 -75 117 -92 31
-17 60 -38 64 -45 12 -20 27 -16 27 8 0 35 -38 89 -127 178 -46 46 -82 89 -81
95 5 27 -14 54 -45 62 -17 5 -36 19 -41 30 -5 11 -31 30 -57 42 -26 12 -49 29
-53 37 -3 8 -14 15 -25 15 -11 0 -23 5 -27 11 -3 6 -15 9 -25 6 -10 -3 -19 -2
-21 2 -7 15 -67 51 -86 51 -11 0 -25 7 -32 15 -18 22 -27 19 -38 -14z"/>
<path d="M6420 8180 c0 -5 5 -10 10 -10 6 0 10 5 10 10 0 6 -4 10 -10 10 -5 0
-10 -4 -10 -10z"/>
<path d="M6845 8150 c-4 -6 -2 -17 4 -23 15 -15 25 -2 13 19 -7 12 -11 13 -17
4z"/>
<path d="M7150 8149 c0 -5 5 -7 10 -4 6 3 10 8 10 11 0 2 -4 4 -10 4 -5 0 -10
-5 -10 -11z"/>
<path d="M6941 8086 c-8 -10 -9 -16 -1 -21 5 -3 13 1 16 10 9 22 -1 29 -15 11z"/>
<path d="M2925 8050 c3 -5 21 -10 40 -10 19 0 37 5 40 10 4 6 -12 10 -40 10
-28 0 -44 -4 -40 -10z"/>
<path d="M8775 7969 c-4 -6 -5 -12 -2 -15 2 -3 7 2 10 11 7 17 1 20 -8 4z"/>
<path d="M925 7910 c-3 -5 -1 -10 4 -10 6 0 11 5 11 10 0 6 -2 10 -4 10 -3 0
-8 -4 -11 -10z"/>
<path d="M8774 7906 c-4 -9 -4 -20 0 -23 3 -4 12 -1 18 5 9 9 9 15 0 24 -9 9
-13 7 -18 -6z"/>
<path d="M961 7884 c0 -11 3 -14 6 -6 3 7 2 16 -1 19 -3 4 -6 -2 -5 -13z"/>
<path d="M2853 7818 c2 -7 14 -12 25 -10 12 2 22 -2 22 -7 0 -6 5 -11 10 -11
6 0 10 9 10 20 0 16 -7 20 -36 20 -24 0 -34 -4 -31 -12z"/>
<path d="M10520 7629 c-22 -6 -20 -7 13 -8 38 -1 47 3 25 11 -7 3 -24 1 -38
-3z"/>
<path d="M10288 7603 c7 -3 16 -2 19 1 4 3 -2 6 -13 5 -11 0 -14 -3 -6 -6z"/>
<path d="M2440 7563 c0 -22 2 -25 10 -13 13 20 13 40 0 40 -5 0 -10 -12 -10
-27z"/>
<path d="M7580 7540 c0 -5 7 -10 15 -10 8 0 15 5 15 10 0 6 -7 10 -15 10 -8 0
-15 -4 -15 -10z"/>
<path d="M8485 7486 c-22 -16 -11 -39 15 -31 11 4 22 0 27 -9 7 -13 13 -13 33
-3 35 18 32 42 -5 42 -16 0 -35 3 -41 7 -6 4 -19 1 -29 -6z"/>
<path d="M3398 7352 c-10 -2 -18 -9 -18 -15 0 -16 -87 -37 -123 -30 -16 3 -27
1 -27 -5 0 -16 30 -28 60 -25 14 1 36 3 50 4 14 2 37 11 52 21 14 10 31 18 37
18 6 0 11 4 11 9 0 14 -24 28 -42 23z"/>
<path d="M3505 7350 c-4 -6 5 -10 19 -10 14 0 26 5 26 10 0 6 -9 10 -19 10
-11 0 -23 -4 -26 -10z"/>
<path d="M9090 7317 c0 -15 28 -57 38 -57 13 0 32 39 26 55 -7 18 -64 21 -64
2z"/>
<path d="M8571 7313 c4 -23 -3 -33 -23 -33 -16 0 -19 -3 -11 -11 6 -6 21 -9
34 -7 18 2 24 9 24 27 0 13 -6 26 -13 29 -7 2 -12 0 -11 -5z"/>
<path d="M7346 7225 c-2 -7 6 -25 20 -40 20 -21 27 -24 44 -15 22 12 18 30 -6
30 -8 0 -23 9 -33 19 -15 15 -21 16 -25 6z"/>
<path d="M8530 7230 c0 -5 7 -10 16 -10 8 0 12 5 9 10 -3 6 -10 10 -16 10 -5
0 -9 -4 -9 -10z"/>
<path d="M10225 7190 c-3 -5 1 -10 10 -10 9 0 13 5 10 10 -3 6 -8 10 -10 10
-2 0 -7 -4 -10 -10z"/>
<path d="M8194 7155 c-18 -13 -16 -14 24 -15 23 0 42 5 42 11 0 5 -5 7 -10 4
-6 -4 -17 -2 -24 4 -9 8 -18 7 -32 -4z"/>
<path d="M8080 7140 c0 -5 11 -10 25 -10 14 0 25 5 25 10 0 6 -11 10 -25 10
-14 0 -25 -4 -25 -10z"/>
<path d="M2972 7083 c4 -21 35 -30 51 -14 13 13 10 16 -26 25 -24 6 -28 4 -25
-11z"/>
<path d="M7360 7082 c0 -12 61 -42 73 -35 5 3 3 11 -5 19 -17 17 -68 29 -68
16z"/>
<path d="M2850 7020 c0 -5 5 -10 11 -10 5 0 7 5 4 10 -3 6 -8 10 -11 10 -2 0
-4 -4 -4 -10z"/>
<path d="M7480 7020 c0 -5 5 -10 11 -10 5 0 7 5 4 10 -3 6 -8 10 -11 10 -2 0
-4 -4 -4 -10z"/>
<path d="M3083 6973 c-22 -8 -14 -23 13 -23 15 0 24 5 22 12 -5 14 -18 18 -35
11z"/>
<path d="M2935 6920 c3 -5 10 -10 16 -10 5 0 9 5 9 10 0 6 -7 10 -16 10 -8 0
-12 -4 -9 -10z"/>
<path d="M2643 6808 c2 -7 12 -13 22 -13 10 0 20 6 23 13 2 7 -6 12 -23 12
-17 0 -25 -5 -22 -12z"/>
<path d="M2497 6734 c-11 -11 3 -24 24 -24 12 0 19 5 17 13 -5 14 -31 21 -41
11z"/>
<path d="M1937 6562 c-15 -16 -27 -33 -27 -40 0 -7 -11 -12 -25 -12 -27 0 -75
-43 -75 -66 0 -17 0 -17 38 2 18 8 32 22 32 30 0 8 7 14 16 14 17 0 84 64 84
80 0 21 -19 17 -43 -8z"/>
<path d="M2850 6360 c0 -5 9 -10 19 -10 11 0 23 5 26 10 4 6 -5 10 -19 10 -14
0 -26 -4 -26 -10z"/>
<path d="M1677 6343 c-12 -11 -8 -23 8 -23 8 0 15 7 15 15 0 16 -12 20 -23 8z"/>
<path d="M7590 6261 c0 -11 69 -20 75 -10 5 7 -29 19 -57 19 -10 0 -18 -4 -18
-9z"/>
<path d="M7729 6235 c37 -17 81 -20 81 -6 0 13 -27 21 -73 21 l-42 -1 34 -14z"/>
<path d="M10415 2282 c-2 -2 -61 -5 -132 -7 -417 -13 -554 -16 -893 -20 -528
-5 -498 -4 -477 -16 10 -6 52 -12 95 -14 42 -2 100 -9 127 -15 64 -15 88 -17
268 -24 81 -4 159 -11 173 -16 14 -6 29 -8 33 -6 4 3 67 -2 141 -11 74 -8 176
-18 227 -22 52 -3 98 -11 105 -18 6 -7 27 -13 45 -13 18 0 47 -6 65 -14 18 -8
49 -21 70 -30 20 -9 45 -16 56 -16 11 0 25 -7 32 -15 7 -8 20 -15 29 -15 10 0
28 -11 41 -25 14 -14 44 -38 68 -53 35 -22 42 -31 37 -50 -6 -25 29 -96 59
-122 9 -7 16 -21 16 -31 0 -11 7 -19 15 -19 9 0 21 -11 27 -25 6 -14 15 -25
19 -25 4 0 9 -7 13 -15 7 -20 0 -19 -21 4 -15 16 -108 71 -119 71 -14 0 1 -64
22 -95 24 -35 24 -40 13 -84 -17 -61 -15 -775 2 -839 13 -46 10 -56 -13 -47
-15 6 -32 35 -61 105 -55 132 -70 167 -78 180 -5 8 -12 22 -15 30 -3 8 -12 29
-20 47 -8 17 -14 36 -14 42 0 6 -11 34 -24 63 -13 29 -33 73 -44 98 -11 25
-48 108 -82 185 -34 77 -75 168 -91 203 -16 34 -29 67 -29 72 0 6 -4 18 -9 28
-5 9 -15 31 -22 47 -8 17 -22 42 -33 57 -11 16 -16 35 -13 48 4 16 -3 31 -26
54 -26 26 -41 33 -79 34 -27 1 -48 -3 -48 -8 0 -14 -37 -13 -46 1 -3 6 -16 8
-27 5 -20 -5 -98 9 -128 24 -9 5 -22 4 -29 0 -7 -5 -24 -4 -37 1 -31 12 -73
12 -73 0 0 -11 -33 -9 -42 3 -3 6 -51 11 -105 13 -234 7 -252 9 -277 32 -21
20 -24 20 -37 5 -8 -9 -13 -25 -11 -34 3 -16 -2 -16 -38 -7 -41 11 -49 20 -29
33 17 10 -10 24 -48 24 -17 0 -38 7 -47 15 -18 19 -36 19 -36 1 0 -8 -7 -16
-15 -20 -8 -3 -15 -11 -15 -19 0 -7 -9 -13 -20 -13 -13 0 -19 6 -17 16 1 8 10
14 20 12 11 -2 17 4 17 18 0 23 0 24 -37 8 -15 -6 -35 -10 -43 -9 -11 1 -10
-2 3 -13 18 -14 18 -15 -2 -25 -31 -17 -48 -13 -54 11 -6 22 -6 22 -25 3 -10
-11 -18 -27 -18 -35 1 -11 -11 -15 -50 -16 -62 -1 -80 -10 -63 -30 6 -7 15
-11 20 -8 5 3 9 -5 9 -17 0 -19 -4 -20 -32 -14 -47 10 -88 11 -124 3 -28 -6
-31 -5 -27 11 4 15 -3 19 -38 25 -24 4 -48 11 -54 16 -6 5 -27 5 -50 -2 -22
-6 -80 -14 -130 -19 -49 -4 -112 -12 -140 -18 -27 -5 -56 -10 -63 -10 -7 -1
-11 -5 -8 -10 3 -5 27 -7 52 -6 48 4 87 -17 68 -35 -14 -13 -86 -14 -119 0
-63 25 -133 35 -168 22 -18 -7 -41 -12 -50 -12 -24 0 -42 -37 -27 -56 15 -17
34 -8 26 12 -4 10 3 14 23 14 19 0 36 -10 57 -35 16 -19 33 -35 38 -35 23 0
156 -74 156 -86 0 -8 7 -14 16 -14 8 0 12 -4 9 -10 -3 -5 1 -10 11 -10 9 0 22
-7 28 -15 14 -19 114 -36 138 -24 24 13 92 11 105 -2 9 -9 35 0 103 35 50 25
97 46 105 46 8 0 44 10 80 21 78 26 101 20 142 -40 16 -22 38 -45 51 -52 12
-7 22 -21 22 -31 0 -10 5 -18 10 -18 6 0 10 -11 10 -24 0 -13 7 -26 15 -30 8
-3 15 -15 15 -27 0 -12 10 -32 23 -44 20 -20 38 -48 74 -117 8 -15 22 -33 32
-40 10 -7 19 -15 19 -18 3 -24 26 -61 57 -90 20 -19 46 -55 58 -79 12 -24 39
-63 59 -86 21 -24 38 -48 38 -54 0 -6 4 -11 9 -11 4 0 22 -22 39 -50 17 -27
36 -50 42 -50 5 0 10 -9 10 -20 0 -12 18 -40 40 -62 22 -23 40 -50 40 -59 0
-9 7 -20 16 -23 8 -3 13 -10 10 -14 -3 -5 11 -26 30 -47 19 -21 34 -44 34 -52
0 -7 11 -15 25 -19 19 -5 25 -13 25 -33 0 -19 9 -32 30 -44 18 -11 30 -26 30
-38 0 -11 14 -34 30 -51 17 -16 30 -36 30 -43 0 -8 8 -20 18 -27 10 -7 24 -28
31 -46 8 -18 22 -37 33 -43 12 -6 17 -17 14 -26 -4 -11 -2 -13 9 -9 10 3 15
-1 15 -13 0 -11 18 -49 40 -85 22 -36 40 -72 40 -81 0 -12 15 -15 75 -15 l75
0 -11 27 c-6 16 -16 35 -23 43 -7 8 -16 23 -19 33 -4 9 -13 17 -22 17 -8 0
-15 5 -15 12 0 22 -35 87 -47 88 -6 0 -21 12 -32 28 -12 15 -25 32 -31 39 -5
7 -10 18 -10 25 0 8 -9 21 -20 31 -11 9 -20 27 -20 39 0 27 -8 39 -35 54 -15
8 -20 22 -21 55 -1 32 0 35 3 11 3 -20 9 -32 16 -29 14 4 38 -24 62 -75 9 -21
24 -38 31 -38 8 0 14 -8 14 -19 0 -10 7 -24 15 -31 8 -7 13 -16 10 -20 -3 -4
2 -13 11 -20 8 -7 13 -19 10 -27 -3 -8 2 -13 14 -13 11 0 20 -7 20 -15 0 -8 4
-15 9 -15 5 0 13 -9 16 -20 3 -11 13 -20 21 -20 8 0 14 -10 14 -22 0 -11 10
-35 23 -52 12 -17 28 -43 35 -58 l12 -28 395 0 396 0 -7 23 c-74 244 -101 317
-159 435 -50 103 -68 162 -47 162 4 0 29 -19 54 -42 25 -24 56 -52 69 -64 13
-11 36 -35 51 -52 14 -18 31 -32 37 -32 8 0 11 269 11 929 l0 928 -191 -1
c-105 0 -192 -2 -194 -4z m-1317 -336 c3 -12 -1 -17 -10 -14 -7 3 -15 13 -16
22 -3 12 1 17 10 14 7 -3 15 -13 16 -22z m802 -46 c21 0 30 -4 28 -12 -3 -8
-23 -13 -49 -13 -38 0 -44 3 -47 23 -3 21 -1 22 17 13 11 -6 34 -11 51 -11z
m-1200 0 c0 -5 -2 -10 -4 -10 -3 0 -8 5 -11 10 -3 6 -1 10 4 10 6 0 11 -4 11
-10z m455 -21 c0 -10 -9 -13 -30 -11 -36 4 -39 7 -32 26 7 19 62 6 62 -15z
m-367 -74 c55 -13 31 -30 -48 -33 -56 -2 -76 1 -90 13 -13 12 -24 14 -35 7
-19 -10 -65 -4 -65 9 0 15 179 19 238 4z m-756 -17 c-9 -9 -15 -9 -24 0 -9 9
-7 12 12 12 19 0 21 -3 12 -12z m125 -42 c13 -11 19 -24 14 -29 -12 -12 -64
-12 -87 1 -17 10 -17 11 9 12 29 0 34 9 15 29 -21 21 23 9 49 -13z m817 -70
c17 -16 46 -40 64 -54 35 -27 40 -40 17 -48 -9 -4 -24 3 -35 16 -10 12 -23 19
-28 16 -10 -6 -46 30 -55 57 -4 9 -15 17 -26 17 -10 0 -22 7 -25 16 -9 23 -8
24 17 33 16 6 24 4 31 -8 5 -9 23 -29 40 -45z m-634 20 c0 -3 -4 -8 -10 -11
-5 -3 -10 -1 -10 4 0 6 5 11 10 11 6 0 10 -2 10 -4z m2447 -182 c-9 -9 -45 19
-58 45 -24 46 -21 47 21 3 23 -24 40 -46 37 -48z m-1690 30 c2 -6 -5 -14 -17
-17 -15 -4 -20 0 -20 15 0 21 30 23 37 2z m9 -85 c-1 -16 -7 -30 -11 -30 -15
-1 -23 35 -13 54 13 25 28 11 24 -24z m48 -84 c4 -14 13 -25 21 -25 11 0 15
-12 15 -47 0 -30 3 -43 9 -35 7 11 10 10 15 -3 3 -9 6 -23 6 -31 0 -8 10 -25
21 -38 23 -27 42 -57 59 -96 6 -13 16 -28 22 -31 6 -4 11 -18 11 -33 0 -14 5
-26 11 -26 6 0 20 -15 31 -32 10 -18 24 -37 32 -41 7 -4 13 -14 13 -22 0 -7
11 -22 25 -33 18 -15 25 -29 25 -56 0 -24 5 -36 14 -36 8 0 17 -6 20 -12 3 -7
15 -26 26 -43 11 -16 23 -37 27 -45 4 -8 17 -26 30 -40 20 -22 33 -80 17 -80
-9 0 -43 44 -44 56 0 6 -7 17 -16 25 -9 7 -25 33 -36 57 -12 24 -27 46 -34 49
-8 3 -12 9 -9 13 3 4 -9 25 -26 46 -16 21 -41 61 -55 88 -14 28 -29 53 -34 56
-4 3 -15 21 -24 40 -9 19 -29 56 -46 83 -16 26 -27 47 -23 47 3 0 -1 8 -9 18
-17 19 -68 120 -68 135 0 5 -13 26 -30 47 -31 39 -44 104 -16 81 8 -7 17 -23
20 -36z m473 -847 c-3 -8 -6 -5 -6 6 -1 11 2 17 5 13 3 -3 4 -12 1 -19z"/>
<path d="M8810 2240 c0 -6 14 -10 30 -10 39 0 39 14 0 17 -17 1 -30 -2 -30 -7z"/>
<path d="M10060 1895 c0 -12 84 -85 98 -85 11 0 39 -7 62 -15 23 -8 46 -12 51
-9 15 9 10 24 -8 31 -10 4 -26 16 -36 28 -13 14 -20 16 -23 8 -8 -18 -27 -16
-20 2 7 20 -30 39 -81 41 -24 1 -43 1 -43 -1z"/>
<path d="M7676 1781 c-3 -4 -31 -7 -63 -5 -41 1 -63 -3 -75 -14 -10 -8 -18
-18 -18 -21 0 -10 133 -3 139 8 4 5 17 14 30 19 20 7 21 10 8 15 -9 3 -19 3
-21 -2z"/>
<path d="M6960 1766 c0 -8 7 -17 16 -20 21 -8 26 -3 18 18 -8 20 -34 21 -34 2z"/>
<path d="M7033 1764 c-17 -14 -17 -15 1 -27 10 -7 32 -23 47 -36 16 -12 36
-21 44 -18 9 4 12 1 8 -9 -4 -10 3 -14 26 -14 21 0 31 5 31 15 0 23 16 18 35
-12 15 -22 15 -30 5 -46 -9 -16 -9 -21 1 -27 7 -5 18 -6 26 -3 7 3 16 -2 19
-11 10 -26 70 -19 143 15 36 17 72 36 79 42 7 6 64 11 125 12 62 1 140 6 174
10 34 4 75 3 90 -2 32 -10 73 -6 73 7 0 19 -40 31 -74 22 -30 -9 -35 -7 -45
14 -8 19 -18 24 -48 24 -21 0 -58 1 -83 2 -48 1 -109 -18 -141 -45 -24 -21
-99 -13 -128 15 -12 10 -21 14 -21 8 0 -5 -8 -10 -17 -10 -14 0 -15 2 -4 9 22
14 -6 23 -50 16 -35 -6 -41 -4 -46 14 -7 29 -62 44 -165 47 -63 1 -92 -2 -105
-12z m82 -35 c11 -17 -1 -21 -15 -4 -8 9 -8 15 -2 15 6 0 14 -5 17 -11z"/>
<path d="M10330 1740 c0 -5 5 -10 11 -10 5 0 7 5 4 10 -3 6 -8 10 -11 10 -2 0
-4 -4 -4 -10z"/>
<path d="M2469 1564 c-7 -9 -15 -26 -16 -37 -3 -22 -3 -22 10 -2 15 21 29 55
23 55 -2 0 -10 -7 -17 -16z"/>
<path d="M6580 1427 c0 -7 6 -21 13 -31 11 -16 13 -15 15 7 1 14 -5 27 -13 31
-9 3 -15 0 -15 -7z"/>
<path d="M6546 1355 c4 -8 10 -15 14 -15 4 0 10 7 14 15 4 10 -1 15 -14 15
-13 0 -18 -5 -14 -15z"/>
</g>
</svg>
